<svg width="84" height="85" viewBox="0 0 84 85" fill="none" xmlns="http://www.w3.org/2000/svg">
<g id="64d6cc82ab17a00828c5ef8f_icon-2-perks-startply-x-webflow-template.svg" clip-path="url(#clip0_2235_19731)">
<path id="Vector" d="M32.1104 6.63285C33.2351 4.1077 35.7405 2.48093 38.5048 2.48093H72.9131C74.4814 2.48093 76.0043 3.00758 77.2375 3.97642L80.282 6.36814C81.9712 7.69523 82.9576 9.72447 82.9576 11.8726V76.3556C82.9576 80.2216 79.8236 83.3556 75.9576 83.3556H10.1146C7.75523 83.3556 5.55462 82.1671 4.26085 80.1941L3.42952 78.9264C2.12347 76.9346 1.91976 74.4155 2.88882 72.2398L32.1104 6.63285Z" fill="#063137" stroke="#063137" stroke-width="2"/>
<path id="Vector_2" d="M72.4576 2.10641H8.45898C4.59299 2.10641 1.45898 5.24042 1.45898 9.10641V73.105C1.45898 76.971 4.59299 80.105 8.45898 80.105H72.4576C76.3236 80.105 79.4576 76.971 79.4576 73.105V9.10641C79.4576 5.24042 76.3236 2.10641 72.4576 2.10641Z" fill="white" stroke="#063137" stroke-width="2"/>
<path id="Vector_3" d="M34.9842 20.2021H34.9842C33.2379 20.2021 31.8223 21.6178 31.8223 23.3641V62.4724C31.8223 64.2187 33.2379 65.6343 34.9842 65.6343C36.7305 65.6343 38.1461 64.2187 38.1461 62.4724V23.3641C38.1461 21.6178 36.7305 20.2021 34.9842 20.2021Z" fill="#06C35D"/>
<path id="Vector_4" d="M63.6326 30.6059H63.6326C61.8863 30.6059 60.4707 32.0216 60.4707 33.7678V62.4724C60.4707 64.2187 61.8863 65.6343 63.6326 65.6343C65.3789 65.6343 66.7946 64.2187 66.7946 62.4724V33.7678C66.7946 32.0216 65.3789 30.6059 63.6326 30.6059Z" fill="#06C35D"/>
<path id="Vector_5" opacity="0.4" d="M20.66 34.2021H20.66C18.9137 34.2021 17.498 35.6178 17.498 37.3641V62.4724C17.498 64.2187 18.9137 65.6343 20.66 65.6343C22.4063 65.6343 23.8219 64.2187 23.8219 62.4724V37.3641C23.8219 35.6178 22.4063 34.2021 20.66 34.2021Z" fill="#063137"/>
<path id="Vector_6" opacity="0.4" d="M49.3084 47.4521H49.3084C47.5621 47.4521 46.1465 48.8678 46.1465 50.6141V62.4724C46.1465 64.2187 47.5621 65.6343 49.3084 65.6343C51.0547 65.6343 52.4703 64.2187 52.4703 62.4724V50.6141C52.4703 48.8678 51.0547 47.4521 49.3084 47.4521Z" fill="#063137"/>
</g>
<defs>
<clipPath id="clip0_2235_19731">
<rect width="84" height="84" fill="white" transform="translate(0 0.940033)"/>
</clipPath>
</defs>
</svg>
