<svg width="100" height="85" viewBox="0 0 100 85" fill="none" xmlns="http://www.w3.org/2000/svg">
<g id="64d6cc825b9d53be4e5e6813_icon-3-perks-startply-x-webflow-template.svg" clip-path="url(#clip0_2235_19749)">
<path id="Vector" d="M38.7225 18.65C40.0012 16.601 42.2458 15.3559 44.661 15.3559H87.69C88.889 15.3559 90.0678 15.6638 91.1136 16.2502L94.9231 18.3863C97.1319 19.6248 98.4996 21.9596 98.4996 24.4919V76.3557C98.4996 80.2217 95.3656 83.3557 91.4996 83.3557H11.3087C9.34933 83.3557 7.47962 82.5345 6.15398 81.0916L5.94788 80.8672C3.81848 78.5495 3.49779 75.0956 5.16409 72.4254L38.7225 18.65Z" fill="#063137" stroke="#063137" stroke-width="2"/>
<path id="Vector_2" d="M73.6729 2.23404L15.4917 17.8236C12.8244 18.5384 11.2415 21.28 11.9562 23.9474L23.5947 67.3826C24.3094 70.05 27.051 71.6329 29.7184 70.9182L87.8996 55.3286C90.5669 54.6139 92.1498 51.8722 91.4351 49.2048L79.7966 5.76957C79.0819 3.10224 76.3403 1.51933 73.6729 2.23404Z" fill="#06C35D"/>
<path id="Vector_3" d="M87.3754 15.3559H9.49023C5.62424 15.3559 2.49023 18.4899 2.49023 22.3559V73.6351C2.49023 77.5011 5.62424 80.6351 9.49023 80.6351H87.3754C91.2414 80.6351 94.3754 77.5011 94.3754 73.6351V22.3559C94.3754 18.4899 91.2414 15.3559 87.3754 15.3559Z" fill="white" stroke="#063137" stroke-width="2"/>
<path id="Vector_4" d="M91.4985 38.6327H66.0449C62.1789 38.6327 59.0449 41.7667 59.0449 45.6327V53.0787C59.0449 56.9447 62.1789 60.0787 66.0449 60.0787H91.4985C95.3645 60.0787 98.4985 56.9447 98.4985 53.0787V45.6327C98.4985 41.7667 95.3645 38.6327 91.4985 38.6327Z" fill="white" stroke="#063137" stroke-width="2"/>
<path id="Vector_5" opacity="0.4" d="M74.6719 49.3522C74.6719 46.7289 72.5452 44.6022 69.9219 44.6022C67.2985 44.6022 65.1719 46.7289 65.1719 49.3522V49.3594C65.1719 51.9827 67.2985 54.1094 69.9219 54.1094C72.5452 54.1094 74.6719 51.9827 74.6719 49.3594V49.3522Z" fill="#063137"/>
<path id="Vector_6" d="M94.3749 27.3705H2.49023" stroke="#063137" stroke-width="2"/>
</g>
<defs>
<clipPath id="clip0_2235_19749">
<rect width="99" height="84" fill="white" transform="translate(0.5 0.940033)"/>
</clipPath>
</defs>
</svg>
