<svg width="70" height="85" viewBox="0 0 70 85" fill="none" xmlns="http://www.w3.org/2000/svg">
<g id="64d6cc8204a893ff7eece656_icon-1-perks-startply-x-webflow-template.svg" clip-path="url(#clip0_2235_19715)">
<path id="Vector" fill-rule="evenodd" clip-rule="evenodd" d="M65.3817 13.7095C67.2239 14.3545 68.4549 16.0913 68.4549 18.0431V46.5955C68.4549 54.5756 65.5545 62.1932 60.4326 68.0951C57.8568 71.0671 54.5981 73.3815 51.1371 75.2532L36.138 83.3556L21.1135 75.249C17.6483 73.3773 14.3854 71.0671 11.8055 68.0909C6.67928 62.189 3.77051 54.5672 3.77051 46.5786V18.0431C3.77051 16.0913 5.00147 14.3545 6.84369 13.7095L34.5908 3.95881C35.5773 3.61313 36.6523 3.61313 37.6345 3.95881L65.3817 13.7095Z" fill="#063137" stroke="#063137" stroke-width="2" stroke-linecap="round" stroke-linejoin="round"/>
<path id="Vector_2" fill-rule="evenodd" clip-rule="evenodd" d="M62.8524 12.5713C64.6946 13.2163 65.9256 14.9531 65.9256 16.905V45.4573C65.9256 53.4374 63.0252 61.0551 57.9033 66.9569C55.3275 69.9289 52.0688 72.2433 48.6078 74.115L33.6087 82.2174L18.5842 74.1108C15.119 72.2391 11.8561 69.9289 9.27617 66.9527C4.14998 61.0508 1.24121 53.429 1.24121 45.4404V16.905C1.24121 14.9531 2.47217 13.2163 4.31439 12.5713L32.0616 2.82063C33.048 2.47495 34.123 2.47495 35.1052 2.82063L62.8524 12.5713Z" fill="white" stroke="#063137" stroke-width="2" stroke-linecap="round" stroke-linejoin="round"/>
<path id="Vector_3" opacity="0.4" fill-rule="evenodd" clip-rule="evenodd" d="M58.2372 17.2734C59.7889 17.8167 60.8258 19.2797 60.8258 20.9237V44.9735C60.8258 51.6952 58.3828 58.1116 54.0685 63.0827C51.899 65.5861 49.1542 67.5355 46.239 69.112L33.6051 75.9367L20.9499 69.1085C18.0311 67.5319 15.2828 65.5861 13.1097 63.0792C8.79187 58.108 6.3418 51.6881 6.3418 44.9593V20.9237C6.3418 19.2797 7.37864 17.8167 8.93035 17.2734L32.3019 9.06038C33.1328 8.76922 34.0383 8.76922 34.8656 9.06038L58.2372 17.2734Z" fill="white" stroke="#063137" stroke-width="2" stroke-linecap="round" stroke-linejoin="round"/>
<path id="Vector_4" d="M22.624 41.2116L30.6 49.1918L47.0324 32.7593" stroke="#06C35D" stroke-width="4" stroke-linecap="round" stroke-linejoin="round"/>
</g>
<defs>
<clipPath id="clip0_2235_19715">
<rect width="70" height="84" fill="white" transform="translate(0 0.940033)"/>
</clipPath>
</defs>
</svg>
