<svg width="114" height="84" viewBox="0 0 114 84" fill="none" xmlns="http://www.w3.org/2000/svg">
<g id="64d6cc8243b963f3ce96d7af_icon-4-perks-startply-x-webflow-template.svg" clip-path="url(#clip0_2235_19767)">
<path id="Vector" d="M38.7038 76.2596C38.2604 76.2596 37.8138 76.2596 37.3804 76.2596L26.7776 82.178C22.6501 80.7896 18.8217 78.6346 15.4933 75.8262L15.4536 63.9167C15.2188 63.5461 14.9972 63.1723 14.7921 62.7887L4.24881 56.7842C3.41837 52.5838 3.41837 48.2613 4.24881 44.0609L14.7821 38.073C14.9972 37.6926 15.2188 37.3155 15.4437 36.9449L15.4967 25.0354C18.822 22.219 22.6495 20.0561 26.7776 18.6605L37.3639 24.5789C37.8072 24.5789 38.2539 24.5789 38.6871 24.5789L49.2734 18.6605C53.401 20.0489 57.2295 22.2039 60.5577 25.0123L60.5974 36.9218C60.8323 37.2923 61.054 37.6661 61.2591 38.0499L71.7957 44.051C72.6261 48.2514 72.6261 52.5739 71.7957 56.7743L61.2623 62.7621C61.0473 63.1425 60.8257 63.5197 60.6007 63.8902L60.5478 75.7998C57.2247 78.6167 53.3996 80.7807 49.2734 82.178L38.7038 76.2596Z" fill="#063137" stroke="#063137" stroke-width="1.96548" stroke-linecap="round" stroke-linejoin="round"/>
<path id="Vector_2" d="M35.8949 74.6822C35.4537 74.6822 35.0092 74.6822 34.5779 74.6822L24.0254 80.5726C19.9173 79.1908 16.107 77.046 12.7945 74.2509L12.755 62.3978C12.5213 62.0291 12.3007 61.657 12.0966 61.2751L1.60328 55.2992C0.776771 51.1186 0.776771 46.8167 1.60328 42.6361L12.0867 36.6767C12.3007 36.2981 12.5213 35.9227 12.7452 35.5539L12.7979 23.7008C16.1073 20.8978 19.9166 18.7451 24.0254 17.3562L34.5614 23.2465C35.0026 23.2465 35.4471 23.2465 35.8785 23.2465L46.4145 17.3562C50.5225 18.738 54.3328 20.8827 57.6453 23.6778L57.6848 35.5308C57.9186 35.8997 58.1391 36.2717 58.3434 36.6536L68.8301 42.6263C69.6565 46.8068 69.6565 51.1087 68.8301 55.2893L58.3466 61.2488C58.1326 61.6274 57.912 62.0028 57.6881 62.3715L57.6354 74.2246C54.3282 77.0281 50.5212 79.1819 46.4145 80.5726L35.8949 74.6822Z" fill="white" stroke="#063137" stroke-width="1.96548" stroke-linecap="round" stroke-linejoin="round"/>
<path id="Vector_3" d="M35.2209 59.8014C41.2061 59.8014 46.058 54.9495 46.058 48.9643C46.058 42.9791 41.2061 38.1271 35.2209 38.1271C29.2358 38.1271 24.3838 42.9791 24.3838 48.9643C24.3838 54.9495 29.2358 59.8014 35.2209 59.8014Z" fill="#06C35D"/>
<path id="Vector_4" d="M91.4758 39.6926C91.1945 39.6926 90.9113 39.6926 90.6364 39.6926L83.9112 43.4465C81.2932 42.5659 78.8649 41.1991 76.7538 39.4178L76.7287 31.8638C76.5797 31.6288 76.4391 31.3916 76.309 31.1482L69.6216 27.3398C69.0949 24.6755 69.0949 21.9339 69.6216 19.2696L76.3027 15.4716C76.4391 15.2303 76.5797 14.9911 76.7224 14.7561L76.7559 7.20211C78.8651 5.41569 81.2928 4.04381 83.9112 3.15863L90.6259 6.91255C90.907 6.91255 91.1904 6.91255 91.4652 6.91255L98.1799 3.15863C100.798 4.03928 103.226 5.40613 105.337 7.18743L105.362 14.7414C105.512 14.9764 105.652 15.2135 105.782 15.4569L112.466 19.2633C112.992 21.9276 112.992 24.6692 112.466 27.3334L105.784 31.1314C105.647 31.3728 105.507 31.612 105.364 31.847L105.331 39.401C103.223 41.1877 100.797 42.5603 98.1799 43.4465L91.4758 39.6926Z" fill="#063137" stroke="#063137" stroke-width="1.96548" stroke-linecap="round" stroke-linejoin="round"/>
<path id="Vector_5" d="M89.6955 38.6922C89.4156 38.6922 89.1337 38.6922 88.8601 38.6922L82.1669 42.4283C79.5612 41.5519 77.1445 40.1915 75.0434 38.4186L75.0183 30.9005C74.87 30.6666 74.7301 30.4305 74.6007 30.1883L67.945 26.3979C67.4207 23.7462 67.4207 21.0177 67.945 18.3659L74.5944 14.586C74.7301 14.3459 74.87 14.1077 75.012 13.8738L75.0455 6.35568C77.1447 4.57772 79.5608 3.21234 82.1669 2.33136L88.8497 6.06749C89.1296 6.06749 89.4114 6.06749 89.685 6.06749L96.3678 2.33136C98.9736 3.20783 101.39 4.5682 103.491 6.34106L103.517 13.8592C103.665 14.0931 103.805 14.3292 103.934 14.5714L110.586 18.3598C111.109 21.0114 111.109 23.74 110.586 26.3917L103.936 30.1716C103.801 30.4118 103.66 30.6499 103.519 30.8838L103.485 38.4019C101.387 40.1802 98.9726 41.5463 96.3678 42.4283L89.6955 38.6922Z" fill="white" stroke="#063137" stroke-width="1.96548" stroke-linecap="round" stroke-linejoin="round"/>
<path id="Vector_6" opacity="0.4" d="M89.2673 29.2535C93.0636 29.2535 96.1412 26.176 96.1412 22.3797C96.1412 18.5834 93.0636 15.506 89.2673 15.506C85.4711 15.506 82.3936 18.5834 82.3936 22.3797C82.3936 26.176 85.4711 29.2535 89.2673 29.2535Z" fill="#063137"/>
</g>
<defs>
<clipPath id="clip0_2235_19767">
<rect width="113.998" height="82.55" fill="white" transform="translate(0.000976562 0.940033)"/>
</clipPath>
</defs>
</svg>
