<svg width="84" height="85" viewBox="0 0 84 85" fill="none" xmlns="http://www.w3.org/2000/svg">
<g id="64d6cc82cfd44ca4ddd3f21e_icon-5-perks-startply-x-webflow-template.svg" clip-path="url(#clip0_2235_19785)">
<path id="Vector" d="M82.3273 44.5588C82.3273 66.1236 64.8456 83.6053 43.2808 83.6053C21.7161 83.6053 4.23438 66.1236 4.23438 44.5588C4.23438 22.9941 21.7161 5.51242 43.2808 5.51242C64.8456 5.51242 82.3273 22.9941 82.3273 44.5588ZM23.7576 44.5588C23.7576 55.3412 32.4984 64.0821 43.2808 64.0821C54.0632 64.0821 62.8041 55.3412 62.8041 44.5588C62.8041 33.7765 54.0632 25.0356 43.2808 25.0356C32.4984 25.0356 23.7576 33.7765 23.7576 44.5588Z" fill="#063137" stroke="#063137" stroke-width="2"/>
<path id="Vector_2" d="M79.6085 41.4058C79.6085 62.9705 62.1268 80.4522 40.5621 80.4522C18.9973 80.4522 1.51562 62.9705 1.51562 41.4058C1.51562 19.841 18.9973 2.35934 40.5621 2.35934C62.1268 2.35934 79.6085 19.841 79.6085 41.4058ZM21.0389 41.4058C21.0389 52.1881 29.7797 60.929 40.5621 60.929C51.3445 60.929 60.0853 52.1881 60.0853 41.4058C60.0853 30.6234 51.3445 21.8825 40.5621 21.8825C29.7797 21.8825 21.0389 30.6234 21.0389 41.4058Z" fill="white" stroke="#063137" stroke-width="2" stroke-linejoin="round"/>
<path id="Vector_3" d="M1.51465 41.4028C1.51465 36.2752 2.52462 31.1977 4.48688 26.4604C6.44915 21.7231 9.32529 17.4186 12.9511 13.7928C16.5769 10.167 20.8813 7.2909 25.6187 5.32864C30.356 3.36637 35.4335 2.3564 40.5611 2.3564V21.8796C37.9973 21.8796 35.4586 22.3846 33.0899 23.3657C30.7212 24.3469 28.569 25.7849 26.7561 27.5978C24.9432 29.4107 23.5051 31.5629 22.524 33.9316C21.5429 36.3003 21.0379 38.839 21.0379 41.4028H1.51465Z" fill="#06C35D"/>
<path id="Vector_4" d="M40.5615 2.3558C45.5825 2.3558 50.5564 3.3242 55.2106 5.20794L47.8861 23.3051C45.5589 22.3632 43.072 21.879 40.5615 21.879V2.3558Z" fill="#063137" fill-opacity="0.4"/>
<path id="Vector_5" d="M79.6085 41.4058C79.6085 62.9705 62.1268 80.4522 40.5621 80.4522C18.9973 80.4522 1.51562 62.9705 1.51562 41.4058C1.51562 19.841 18.9973 2.35934 40.5621 2.35934C62.1268 2.35934 79.6085 19.841 79.6085 41.4058ZM21.0389 41.4058C21.0389 52.1881 29.7797 60.929 40.5621 60.929C51.3445 60.929 60.0853 52.1881 60.0853 41.4058C60.0853 30.6234 51.3445 21.8825 40.5621 21.8825C29.7797 21.8825 21.0389 30.6234 21.0389 41.4058Z" stroke="#063137" stroke-width="2" stroke-linejoin="round"/>
</g>
<defs>
<clipPath id="clip0_2235_19785">
<rect width="83" height="84" fill="white" transform="translate(0.5 0.940033)"/>
</clipPath>
</defs>
</svg>
