<svg width="90" height="84" viewBox="0 0 90 84" fill="none" xmlns="http://www.w3.org/2000/svg">
<g id="64d6cc829a8023da4c1394c0_icon-6-perks-startply-x-webflow-template.svg" clip-path="url(#clip0_2235_19802)">
<path id="Vector" d="M34.1201 6.04992C35.3855 3.94277 37.6633 2.65365 40.1212 2.65365H78.5542C79.7924 2.65365 81.0085 2.9821 82.0784 3.6055L85.129 5.38307C87.2812 6.63711 88.6049 8.94035 88.6049 11.4312V59.8589C88.6049 63.7249 85.4708 66.8589 81.6049 66.8589H9.66738C7.71081 66.8589 5.84827 66.0195 4.55232 64.5537C2.57964 62.3224 2.28093 59.0698 3.81421 56.5165L34.1201 6.04992Z" fill="#063137" stroke="#063137" stroke-width="2"/>
<path id="Vector_2" d="M77.8583 2.35629H8.37207C4.50608 2.35629 1.37207 5.4903 1.37207 9.35629V57.2782C1.37207 61.1442 4.50608 64.2782 8.37207 64.2782H77.8583C81.7243 64.2782 84.8583 61.1442 84.8583 57.2782V9.35629C84.8583 5.4903 81.7243 2.35629 77.8583 2.35629Z" fill="white" stroke="#063137" stroke-width="2"/>
<path id="Vector_3" d="M84.578 18.4579H1.55078" stroke="#063137" stroke-width="2"/>
<path id="Vector_4" opacity="0.4" d="M9.72727 12.5456C10.9779 12.5456 11.9917 11.5318 11.9917 10.2812C11.9917 9.03061 10.9779 8.01681 9.72727 8.01681C8.47669 8.01681 7.46289 9.03061 7.46289 10.2812C7.46289 11.5318 8.47669 12.5456 9.72727 12.5456Z" fill="#063137"/>
<path id="Vector_5" opacity="0.4" d="M16.5202 12.5456C17.7708 12.5456 18.7846 11.5318 18.7846 10.2812C18.7846 9.03061 17.7708 8.01681 16.5202 8.01681C15.2697 8.01681 14.2559 9.03061 14.2559 10.2812C14.2559 11.5318 15.2697 12.5456 16.5202 12.5456Z" fill="#063137"/>
<path id="Vector_6" opacity="0.4" d="M23.3142 12.5456C24.5648 12.5456 25.5786 11.5318 25.5786 10.2812C25.5786 9.03061 24.5648 8.01681 23.3142 8.01681C22.0636 8.01681 21.0498 9.03061 21.0498 10.2812C21.0498 11.5318 22.0636 12.5456 23.3142 12.5456Z" fill="#063137"/>
<path id="Vector_7" d="M45.8327 83.6048C56.8706 83.6048 65.8187 74.6568 65.8187 63.6188C65.8187 52.5809 56.8706 43.6328 45.8327 43.6328C34.7947 43.6328 25.8467 52.5809 25.8467 63.6188C25.8467 74.6568 34.7947 83.6048 45.8327 83.6048Z" fill="#06C35D"/>
<path id="Vector_8" d="M53.6484 55.803C53.6484 55.803 50.7175 52.8721 45.8326 52.8721C38.9938 52.8721 35.0859 59.7109 35.0859 59.7109" stroke="white" stroke-width="2" stroke-linecap="round" stroke-linejoin="round"/>
<path id="Vector_9" d="M38.0166 71.4346C38.0166 71.4346 40.9475 74.3655 45.8324 74.3655C52.6712 74.3655 56.5791 67.5267 56.5791 67.5267" stroke="white" stroke-width="2" stroke-linecap="round" stroke-linejoin="round"/>
<path id="Vector_10" d="M40.9478 59.7109H35.0859V53.8491" stroke="white" stroke-width="2" stroke-linecap="round" stroke-linejoin="round"/>
<path id="Vector_11" d="M50.7178 67.5267H56.5796V73.3885" stroke="white" stroke-width="2" stroke-linecap="round" stroke-linejoin="round"/>
</g>
<defs>
<clipPath id="clip0_2235_19802">
<rect width="90" height="83" fill="white" transform="translate(0 0.940033)"/>
</clipPath>
</defs>
</svg>
