<svg width="29" height="17" viewBox="0 0 29 17" fill="none" xmlns="http://www.w3.org/2000/svg">
<g id="Icon" clip-path="url(#clip0_2235_19827)">
<path id="Vector" d="M21.2314 2.59631C21.4189 2.3984 21.6533 2.29944 21.9346 2.29944C22.2158 2.29944 22.4502 2.3984 22.6377 2.59631L28.2783 8.23694C28.3721 8.33069 28.445 8.43746 28.4971 8.55725C28.5492 8.67704 28.5752 8.80465 28.5752 8.94006C28.5752 9.07548 28.5492 9.20308 28.4971 9.32288C28.445 9.44267 28.3721 9.54944 28.2783 9.64319L22.6377 15.2838C22.4502 15.4817 22.2158 15.5807 21.9346 15.5807C21.6533 15.5807 21.4189 15.4817 21.2314 15.2838C21.0335 15.0963 20.9346 14.8619 20.9346 14.5807C20.9346 14.2994 21.0335 14.0651 21.2314 13.8776L26.1533 8.94006L21.2314 4.00256C21.0335 3.81506 20.9346 3.58069 20.9346 3.29944C20.9346 3.01819 21.0335 2.78381 21.2314 2.59631ZM0.0751953 8.94006C0.0751953 8.65881 0.171549 8.42183 0.364258 8.22913C0.556966 8.03642 0.793945 7.94006 1.0752 7.94006H27.5752C27.8564 7.94006 28.0934 8.03642 28.2861 8.22913C28.4788 8.42183 28.5752 8.65881 28.5752 8.94006C28.5752 9.22131 28.4788 9.45829 28.2861 9.651C28.0934 9.84371 27.8564 9.94006 27.5752 9.94006H1.0752C0.793945 9.94006 0.556966 9.84371 0.364258 9.651C0.171549 9.45829 0.0751953 9.22131 0.0751953 8.94006Z" fill="white"/>
</g>
<defs>
<clipPath id="clip0_2235_19827">
<rect width="28.64" height="16" fill="white" transform="matrix(1 0 0 -1 0.0751953 16.9401)"/>
</clipPath>
</defs>
</svg>
