<svg width="164" height="36" viewBox="0 0 164 36" fill="none" xmlns="http://www.w3.org/2000/svg">
<g id="6552b4d19f416eb23e5a1afc_business-logo-home-v3-startply-x-webflow-template.svg" clip-path="url(#clip0_2235_19644)">
<path id="Vector" d="M161.041 17.3811L157.196 17.6178C157.13 17.2891 156.989 16.9933 156.772 16.7304C156.556 16.4609 156.269 16.2473 155.914 16.0896C155.566 15.9252 155.148 15.843 154.662 15.843C154.011 15.843 153.463 15.9811 153.016 16.2572C152.569 16.5266 152.345 16.8881 152.345 17.3416C152.345 17.7032 152.49 18.0088 152.779 18.2586C153.068 18.5083 153.564 18.7088 154.267 18.86L157.009 19.4121C158.481 19.7145 159.579 20.2008 160.302 20.8713C161.025 21.5417 161.386 22.4225 161.386 23.5136C161.386 24.5061 161.093 25.377 160.508 26.1263C159.93 26.8757 159.135 27.4606 158.123 27.8812C157.117 28.2954 155.957 28.5024 154.642 28.5024C152.637 28.5024 151.04 28.0851 149.851 27.2503C148.668 26.4089 147.974 25.2653 147.771 23.8193L151.901 23.6024C152.026 24.2136 152.328 24.6803 152.808 25.0023C153.288 25.3179 153.903 25.4756 154.652 25.4756C155.388 25.4756 155.98 25.3343 156.427 25.0517C156.88 24.7624 157.11 24.3911 157.117 23.9376C157.11 23.5563 156.95 23.2441 156.634 23.0009C156.319 22.7511 155.832 22.5605 155.175 22.4291L152.552 21.9065C151.073 21.6107 149.973 21.0981 149.25 20.3684C148.533 19.6389 148.175 18.7088 148.175 17.5783C148.175 16.6055 148.438 15.7674 148.963 15.0642C149.496 14.3608 150.242 13.8186 151.202 13.4374C152.168 13.0562 153.298 12.8655 154.593 12.8655C156.506 12.8655 158.011 13.2698 159.108 14.0782C160.213 14.8867 160.857 15.9876 161.041 17.3811Z" fill="#6B6B6B"/>
<path id="Vector_2" d="M145.452 17.3811L141.606 17.6178C141.54 17.2891 141.399 16.9933 141.182 16.7304C140.966 16.4609 140.679 16.2473 140.324 16.0896C139.976 15.9252 139.559 15.843 139.073 15.843C138.422 15.843 137.873 15.9811 137.426 16.2572C136.979 16.5266 136.755 16.8881 136.755 17.3416C136.755 17.7032 136.9 18.0088 137.189 18.2586C137.478 18.5083 137.975 18.7088 138.678 18.86L141.419 19.4121C142.891 19.7145 143.989 20.2008 144.712 20.8713C145.435 21.5417 145.796 22.4225 145.796 23.5136C145.796 24.5061 145.504 25.377 144.919 26.1263C144.34 26.8757 143.545 27.4606 142.533 27.8812C141.527 28.2954 140.368 28.5024 139.053 28.5024C137.048 28.5024 135.45 28.0851 134.261 27.2503C133.078 26.4089 132.385 25.2653 132.181 23.8193L136.311 23.6024C136.436 24.2136 136.739 24.6803 137.219 25.0023C137.699 25.3179 138.313 25.4756 139.062 25.4756C139.798 25.4756 140.39 25.3343 140.837 25.0517C141.29 24.7624 141.52 24.3911 141.527 23.9376C141.52 23.5563 141.36 23.2441 141.044 23.0009C140.729 22.7511 140.243 22.5605 139.585 22.4291L136.962 21.9065C135.483 21.6107 134.383 21.0981 133.66 20.3684C132.943 19.6389 132.585 18.7088 132.585 17.5783C132.585 16.6055 132.848 15.7674 133.373 15.0642C133.906 14.3608 134.652 13.8186 135.612 13.4374C136.578 13.0562 137.708 12.8655 139.003 12.8655C140.916 12.8655 142.421 13.2698 143.518 14.0782C144.623 14.8867 145.268 15.9876 145.452 17.3811Z" fill="#6B6B6B"/>
<path id="Vector_3" d="M123.16 28.5024C121.603 28.5024 120.262 28.187 119.138 27.5559C118.021 26.9184 117.16 26.0178 116.555 24.8544C115.95 23.6845 115.647 22.3009 115.647 20.7037C115.647 19.146 115.95 17.7788 116.555 16.6022C117.16 15.4257 118.01 14.5087 119.108 13.8515C120.212 13.1942 121.507 12.8655 122.992 12.8655C123.992 12.8655 124.922 13.0266 125.783 13.3487C126.65 13.6642 127.406 14.1407 128.05 14.7783C128.701 15.4158 129.207 16.2177 129.569 17.1839C129.93 18.1436 130.111 19.2676 130.111 20.5558V21.7093H117.324V19.1065H126.158C126.158 18.5018 126.026 17.9661 125.763 17.4994C125.5 17.0327 125.136 16.668 124.669 16.4051C124.209 16.1356 123.673 16.0008 123.062 16.0008C122.424 16.0008 121.859 16.1487 121.366 16.4445C120.88 16.7337 120.499 17.1247 120.223 17.6178C119.947 18.1041 119.805 18.6464 119.798 19.2446V21.7192C119.798 22.4685 119.936 23.1159 120.212 23.6615C120.495 24.207 120.893 24.6277 121.406 24.9234C121.918 25.2193 122.526 25.3672 123.229 25.3672C123.696 25.3672 124.123 25.3015 124.511 25.17C124.899 25.0385 125.231 24.8413 125.507 24.5784C125.783 24.3155 125.993 23.9934 126.138 23.6122L130.022 23.8686C129.825 24.8018 129.421 25.6169 128.81 26.3136C128.205 27.0038 127.423 27.5428 126.464 27.9305C125.511 28.3118 124.409 28.5024 123.16 28.5024Z" fill="#6B6B6B"/>
<path id="Vector_4" d="M103.188 19.4516V28.2067H98.9873V13.0627H102.99V15.7346H103.168C103.503 14.8539 104.065 14.1571 104.853 13.6444C105.642 13.1252 106.599 12.8655 107.723 12.8655C108.774 12.8655 109.691 13.0956 110.474 13.5557C111.256 14.0158 111.863 14.6731 112.297 15.5275C112.731 16.3755 112.948 17.3876 112.948 18.5642V28.2067H108.748V19.3136C108.754 18.3868 108.518 17.6638 108.038 17.1445C107.558 16.6187 106.897 16.3558 106.056 16.3558C105.491 16.3558 104.991 16.4774 104.557 16.7205C104.13 16.9637 103.795 17.3186 103.552 17.7854C103.315 18.2454 103.194 18.8008 103.188 19.4516Z" fill="#6B6B6B"/>
<path id="Vector_5" d="M91.4226 28.2066V13.0627H95.6229V28.2066H91.4226ZM93.5327 11.1106C92.9078 11.1106 92.3722 10.9035 91.9252 10.4894C91.4851 10.0688 91.2646 9.56595 91.2646 8.98096C91.2646 8.40254 91.4851 7.90629 91.9252 7.4922C92.3722 7.07153 92.9078 6.86121 93.5327 6.86121C94.1568 6.86121 94.6898 7.07153 95.1299 7.4922C95.5769 7.90629 95.7999 8.40254 95.7999 8.98096C95.7999 9.56595 95.5769 10.0688 95.1299 10.4894C94.6898 10.9035 94.1568 11.1106 93.5327 11.1106Z" fill="#6B6B6B"/>
<path id="Vector_6" d="M88.4324 17.3811L84.5876 17.6178C84.5218 17.2891 84.3805 16.9933 84.1636 16.7304C83.9467 16.4609 83.6608 16.2473 83.3059 16.0896C82.9575 15.9252 82.5401 15.843 82.0538 15.843C81.403 15.843 80.8542 15.9811 80.4073 16.2572C79.9603 16.5266 79.7368 16.8881 79.7368 17.3416C79.7368 17.7032 79.8814 18.0088 80.1706 18.2586C80.4599 18.5083 80.9561 18.7088 81.6593 18.86L84.4002 19.4121C85.8726 19.7145 86.9703 20.2008 87.6929 20.8713C88.4159 21.5417 88.7779 22.4225 88.7779 23.5136C88.7779 24.5061 88.4854 25.377 87.9004 26.1263C87.3223 26.8757 86.5266 27.4606 85.5144 27.8812C84.5087 28.2954 83.3487 28.5024 82.0341 28.5024C80.0293 28.5024 78.4321 28.0851 77.2424 27.2503C76.0593 26.4089 75.3658 25.2653 75.1621 23.8193L79.2932 23.6024C79.418 24.2136 79.7204 24.6803 80.2002 25.0023C80.68 25.3179 81.2946 25.4756 82.0439 25.4756C82.78 25.4756 83.3717 25.3343 83.8186 25.0517C84.2721 24.7624 84.5021 24.3911 84.5087 23.9376C84.5021 23.5563 84.3411 23.2441 84.0256 23.0009C83.7101 22.7511 83.2237 22.5605 82.5664 22.4291L79.9438 21.9065C78.4649 21.6107 77.364 21.0981 76.641 20.3684C75.9246 19.6389 75.5663 18.7088 75.5663 17.5783C75.5663 16.6055 75.8293 15.7674 76.3551 15.0642C76.8874 14.3608 77.6335 13.8186 78.5931 13.4374C79.5593 13.0562 80.6899 12.8655 81.9848 12.8655C83.8975 12.8655 85.4026 13.2698 86.5003 14.0782C87.6044 14.8867 88.2484 15.9876 88.4324 17.3811Z" fill="#6B6B6B"/>
<path id="Vector_7" d="M68.272 21.7586V13.0627H72.4721V28.2067H68.4396V25.4559H68.2818C67.9401 26.3432 67.3715 27.0564 66.5762 27.5953C65.7874 28.1343 64.8245 28.4038 63.6874 28.4038C62.6752 28.4038 61.7846 28.1738 61.0155 27.7136C60.2465 27.2536 59.6451 26.5996 59.2113 25.7517C58.7841 24.9037 58.5671 23.8883 58.5605 22.7051V13.0627H62.7606V21.9558C62.7672 22.8497 63.0071 23.5563 63.4804 24.0756C63.9536 24.5948 64.5879 24.8544 65.3832 24.8544C65.8893 24.8544 66.3626 24.7394 66.8029 24.5094C67.2433 24.2728 67.5982 23.9244 67.8678 23.4643C68.1438 23.0042 68.2786 22.4357 68.272 21.7586Z" fill="#6B6B6B"/>
<path id="Vector_8" d="M40.9902 28.2066V8.01471H45.1903V15.6064H45.3185C45.5025 15.1989 45.7687 14.7848 46.1171 14.3641C46.4721 13.9369 46.9321 13.582 47.4975 13.2993C48.0693 13.0101 48.7791 12.8655 49.627 12.8655C50.7313 12.8655 51.7501 13.1547 52.6834 13.7331C53.6168 14.3049 54.3628 15.1693 54.9215 16.3261C55.4802 17.4763 55.7595 18.9191 55.7595 20.6544C55.7595 22.3436 55.4868 23.7699 54.9412 24.9332C54.4022 26.0901 53.6661 26.9676 52.7327 27.5657C51.806 28.1573 50.7674 28.4531 49.6172 28.4531C48.8021 28.4531 48.1087 28.3184 47.5369 28.0488C46.9716 27.7793 46.5082 27.4408 46.1467 27.0333C45.7852 26.6192 45.5091 26.2018 45.3185 25.7812H45.1312V28.2066H40.9902ZM45.1016 20.6346C45.1016 21.5351 45.2265 22.3206 45.4762 22.991C45.726 23.6615 46.0876 24.184 46.5608 24.5586C47.034 24.9267 47.6092 25.1108 48.2861 25.1108C48.9698 25.1108 49.5482 24.9234 50.0214 24.5488C50.4947 24.1676 50.8529 23.6417 51.0961 22.9713C51.3458 22.2943 51.4707 21.5154 51.4707 20.6346C51.4707 19.7604 51.3491 18.9914 51.1059 18.3276C50.8627 17.6637 50.5045 17.1444 50.0312 16.7698C49.558 16.3952 48.9764 16.2078 48.2861 16.2078C47.6026 16.2078 47.0241 16.3886 46.5509 16.7501C46.0843 17.1116 45.726 17.6243 45.4762 18.2881C45.2265 18.9519 45.1016 19.7342 45.1016 20.6346Z" fill="#6B6B6B"/>
<path id="Vector_9" fill-rule="evenodd" clip-rule="evenodd" d="M17.0071 13.2714L21.5504 17.8147L17.2244 22.1407L12.6811 17.5973L17.0071 13.2714ZM12.3489 8.61321L9.50035 5.76473C9.33786 5.60225 9.33786 5.33881 9.50035 5.17633L13.5701 1.10654C13.7326 0.94406 13.9961 0.94406 14.1586 1.10654L28.0718 15.0198C29.6154 16.5634 29.6154 19.0661 28.0718 20.6096L21.8826 26.7988L24.7311 29.6473C24.8936 29.8098 24.8936 30.0733 24.7311 30.2357L20.6613 34.3055C20.4988 34.468 20.2353 34.468 20.0729 34.3055L6.15964 20.3923C4.61606 18.8486 4.61606 16.346 6.15964 14.8024L12.3489 8.61321Z" fill="#6B6B6B"/>
</g>
<defs>
<clipPath id="clip0_2235_19644">
<rect width="163.184" height="34.72" fill="white" transform="translate(0.209961 0.829956)"/>
</clipPath>
</defs>
</svg>
