<svg width="164" height="36" viewBox="0 0 164 36" fill="none" xmlns="http://www.w3.org/2000/svg">
<g id="6552b4d11765b2e18e2a8314_institute-logo-home-v3-startply-x-webflow-template.svg" clip-path="url(#clip0_2235_19667)">
<path id="Vector" d="M154.101 11.1656C158.424 11.1656 161.256 14.1769 161.256 18.2018C161.256 18.8876 161.137 19.5137 161.018 20.0801H150.344C150.583 22.4653 152.58 23.7175 154.816 23.7175C156.575 23.7175 157.888 22.9721 158.811 22.0181L160.958 24.5821C159.08 26.3709 157.142 27.0865 154.637 27.0865C149.629 27.0865 146.319 23.5982 146.319 19.1558C146.319 14.7135 149.57 11.1656 154.101 11.1656ZM154.071 14.4154C152.163 14.4154 150.672 15.5483 150.344 17.4564H157.47V17.4266C157.321 15.5483 155.89 14.4154 154.071 14.4154Z" fill="#6B6B6B"/>
<path id="Vector_2" d="M134.953 11.5234H137.219V7.37921H140.975V11.5234H144.583V14.6241H140.975V21.3919C140.975 22.8528 141.691 23.5982 143.092 23.5982C143.54 23.5982 144.284 23.5386 144.97 23.0913V26.4902C144.284 26.8479 143.361 27.0864 142.078 27.0864C138.978 27.0864 137.1 25.2678 137.1 21.9584V14.6241H134.953V11.5234Z" fill="#6B6B6B"/>
<path id="Vector_3" d="M117.836 11.5234H121.713V20.2888C121.713 22.4653 122.994 23.628 124.783 23.628C127.198 23.628 128.272 21.4218 128.272 19.3645V11.5234H132.147V26.7287H128.421V24.6417C127.466 26.2218 125.976 27.0865 123.74 27.0865C120.162 27.0865 117.836 24.7609 117.836 20.736V11.5234Z" fill="#6B6B6B"/>
<path id="Vector_4" d="M105.46 11.5234H107.726V7.37921H111.482V11.5234H115.09V14.6241H111.482V21.3919C111.482 22.8528 112.198 23.5982 113.599 23.5982C114.047 23.5982 114.792 23.5386 115.477 23.0913V26.4902C114.792 26.8479 113.868 27.0864 112.586 27.0864C109.485 27.0864 107.607 25.2678 107.607 21.9584V14.6241H105.46V11.5234Z" fill="#6B6B6B"/>
<path id="Vector_5" d="M98.7715 26.7287V11.5234H102.647V26.7287H98.7715ZM100.679 4.93445C101.901 4.93445 102.916 5.82888 102.916 7.11089C102.916 8.3929 101.901 9.31715 100.679 9.31715C99.3969 9.31715 98.4434 8.3929 98.4434 7.11089C98.4434 5.82888 99.3969 4.93445 100.679 4.93445Z" fill="#6B6B6B"/>
<path id="Vector_6" d="M86.0391 11.5234H88.3049V7.37921H92.0616V11.5234H95.6694V14.6241H92.0616V21.3919C92.0616 22.8528 92.7771 23.5982 94.178 23.5982C94.6254 23.5982 95.3711 23.5386 96.0562 23.0913V26.4902C95.3711 26.8479 94.4465 27.0864 93.1647 27.0864C90.064 27.0864 88.1857 25.2678 88.1857 21.9584V14.6241H86.0391V11.5234Z" fill="#6B6B6B"/>
<path id="Vector_7" d="M78.4758 27.0865C75.7329 27.0865 73.3776 25.8045 72.2148 23.6578L74.8384 21.7199C75.6733 23.0317 76.836 23.956 78.4758 23.956C79.9069 23.956 80.7716 23.4491 80.7716 22.6442C80.7716 21.6901 79.9665 21.3025 77.492 20.4677C74.3913 19.4242 72.7216 18.2018 72.7216 15.6975C72.7216 13.0738 75.2857 11.1656 78.5653 11.1656C81.0697 11.1656 83.1268 12.3582 84.1107 14.1769L81.5169 16.0552C80.8908 15.0117 79.9367 14.2663 78.5056 14.2663C77.2833 14.2663 76.359 14.8328 76.359 15.6676C76.359 16.4726 77.1639 16.89 79.5193 17.7248C82.4113 18.7683 84.4088 19.7819 84.4088 22.5547C84.4088 25.1187 81.9939 27.0865 78.4758 27.0865Z" fill="#6B6B6B"/>
<path id="Vector_8" d="M55.1279 11.5234H58.8548V13.6104C59.8088 12.0303 61.2995 11.1656 63.5356 11.1656C67.1133 11.1656 69.4388 13.4912 69.4388 17.5161V26.7287H65.5629V17.9633C65.5629 15.7868 64.2809 14.6241 62.4921 14.6241C60.0771 14.6241 59.0038 16.8005 59.0038 18.8876V26.7287H55.1279V11.5234Z" fill="#6B6B6B"/>
<path id="Vector_9" d="M46.829 26.7287V11.5234H50.7049V26.7287H46.829ZM48.7371 4.93445C49.9595 4.93445 50.9731 5.82888 50.9731 7.11089C50.9731 8.3929 49.9595 9.31715 48.7371 9.31715C47.4551 9.31715 46.501 8.3929 46.501 7.11089C46.501 5.82888 47.4551 4.93445 48.7371 4.93445Z" fill="#6B6B6B"/>
<path id="Vector_10" fill-rule="evenodd" clip-rule="evenodd" d="M9.98948 2.17132C4.45613 4.85304 0.640625 10.5236 0.640625 17.0852C0.640625 26.233 8.05635 33.6488 17.2042 33.6488C23.7658 33.6488 29.4364 29.8332 32.1181 24.2996H17.2037C13.2441 24.2995 10.0296 21.1095 9.98985 17.1592L9.98948 17.0852V2.17132ZM33.5387 19.8449C33.6893 18.9474 33.7676 18.0255 33.7676 17.0852C33.7676 7.93746 26.3518 0.521729 17.2042 0.521729C16.2639 0.521729 15.3418 0.600083 14.4443 0.750619V10.4175C15.2944 10.0653 16.2265 9.87084 17.2039 9.87084C21.1883 9.87084 24.4183 13.1009 24.4183 17.0852C24.4183 18.0627 24.2238 18.9947 23.8717 19.8449H33.5387Z" fill="#6B6B6B"/>
</g>
<defs>
<clipPath id="clip0_2235_19667">
<rect width="163.118" height="35.42" fill="white" transform="translate(0.643555 0.47998)"/>
</clipPath>
</defs>
</svg>
