<svg width="164" height="34" viewBox="0 0 164 34" fill="none" xmlns="http://www.w3.org/2000/svg">
<g id="6552b4d1a7b93077440e2317_company-logo-home-v3-startply-x-webflow-template.svg" clip-path="url(#clip0_2235_19656)">
<path id="Vector" d="M157.557 11.717H161.377L156.338 25.5599C154.898 29.5466 152.546 31.2909 149.03 31.097V27.7748C150.995 27.8024 151.991 26.9718 152.657 25.1169L146.98 11.717H150.884L154.483 21.0194L157.557 11.717Z" fill="#6B6B6B"/>
<path id="Vector_2" d="M140.546 11.3295C143.481 11.3295 145.779 13.3782 145.779 17.0604V25.56H142.207V17.5034C142.207 15.6208 141.072 14.6518 139.466 14.6518C137.722 14.6518 136.421 15.6762 136.421 18.0849V25.56H132.85V11.7171H136.421V13.2675C137.251 12.0217 138.691 11.3295 140.546 11.3295Z" fill="#6B6B6B"/>
<path id="Vector_3" d="M126.039 11.7171H129.61V25.5599H126.039V23.9265C125.042 25.1724 123.547 25.9475 121.527 25.9475C117.844 25.9475 114.799 22.7637 114.799 18.6385C114.799 14.5133 117.844 11.3295 121.527 11.3295C123.547 11.3295 125.042 12.1047 126.039 13.3506V11.7171ZM122.191 22.5422C124.406 22.5422 126.039 20.9641 126.039 18.6385C126.039 16.3129 124.406 14.7348 122.191 14.7348C120.004 14.7348 118.371 16.3129 118.371 18.6385C118.371 20.9641 120.004 22.5422 122.191 22.5422Z" fill="#6B6B6B"/>
<path id="Vector_4" d="M106.244 11.3295C109.954 11.3295 113 14.5133 113 18.6385C113 22.7637 109.954 25.9475 106.244 25.9475C104.224 25.9475 102.756 25.2 101.759 23.9265V31.097H98.1875V11.7171H101.759V13.3506C102.756 12.077 104.224 11.3295 106.244 11.3295ZM105.58 22.5422C107.795 22.5422 109.428 20.9641 109.428 18.6385C109.428 16.3129 107.795 14.7348 105.58 14.7348C103.393 14.7348 101.759 16.3129 101.759 18.6385C101.759 20.9641 103.393 22.5422 105.58 22.5422Z" fill="#6B6B6B"/>
<path id="Vector_5" d="M89.9222 11.3295C93.0784 11.3295 95.1546 13.5721 95.1546 17.0328V25.56H91.5835V17.2819C91.5835 15.6485 90.7529 14.6518 89.258 14.6518C87.6795 14.6518 86.6832 15.7038 86.6832 17.7803V25.56H83.1121V17.2819C83.1121 15.6485 82.2812 14.6518 80.7862 14.6518C79.2635 14.6518 78.1837 15.7038 78.1837 17.7803V25.56H74.6123V11.7171H78.1837V13.1845C78.959 12.0217 80.2601 11.3295 82.0321 11.3295C83.7484 11.3295 85.0219 12.0493 85.7976 13.3229C86.6553 12.077 88.0395 11.3295 89.9222 11.3295Z" fill="#6B6B6B"/>
<path id="Vector_6" d="M64.7631 25.9475C60.6933 25.9475 57.4541 22.7637 57.4541 18.6385C57.4541 14.5133 60.6933 11.3295 64.7631 11.3295C68.8328 11.3295 72.0998 14.5133 72.0998 18.6385C72.0998 22.7637 68.8328 25.9475 64.7631 25.9475ZM64.7631 22.4591C66.8948 22.4591 68.5284 20.8811 68.5284 18.6385C68.5284 16.396 66.8948 14.8179 64.7631 14.8179C62.659 14.8179 61.0255 16.396 61.0255 18.6385C61.0255 20.8811 62.659 22.4591 64.7631 22.4591Z" fill="#6B6B6B"/>
<path id="Vector_7" d="M50.2436 25.9475C46.0354 25.9475 42.9346 22.7637 42.9346 18.6385C42.9346 14.5133 46.0354 11.3295 50.2436 11.3295C52.9568 11.3295 55.3101 12.7692 56.4451 14.901L53.3721 16.7005C52.8184 15.5654 51.6279 14.8456 50.2159 14.8456C48.0841 14.8456 46.506 16.4237 46.506 18.6385C46.506 20.8257 48.0841 22.4038 50.2159 22.4038C51.6555 22.4038 52.8461 21.7116 53.3997 20.5765L56.5006 22.3484C55.3101 24.5079 52.9568 25.9475 50.2436 25.9475Z" fill="#6B6B6B"/>
<path id="Vector_8" fill-rule="evenodd" clip-rule="evenodd" d="M12.455 3.91309C11.2604 3.91309 10.2921 4.88144 10.2921 6.07597V12.8315H3.4119C2.21738 12.8315 1.24902 13.7999 1.24902 14.9944V30.9414C1.24902 32.1359 2.21738 33.1043 3.4119 33.1043H19.1694C20.364 33.1043 21.3323 32.1359 21.3323 30.9414V24.1858H28.2125C29.407 24.1858 30.3754 23.2175 30.3754 22.023V6.07598C30.3754 4.88145 29.407 3.91309 28.2125 3.91309H12.455ZM21.3323 24.1858V14.9944C21.3323 13.7999 20.364 12.8315 19.1694 12.8315H10.2921V22.023C10.2921 23.2175 11.2604 24.1858 12.455 24.1858H21.3323Z" fill="#6B6B6B"/>
</g>
<defs>
<clipPath id="clip0_2235_19656">
<rect width="163.18" height="32.8" fill="white" transform="translate(0.415039 0.789978)"/>
</clipPath>
</defs>
</svg>
