<svg width="164" height="27" viewBox="0 0 164 27" fill="none" xmlns="http://www.w3.org/2000/svg">
<g id="6552b4d1c644e1513510aed6_organization-logo-home-v3-startply-x-webflow-template.svg" clip-path="url(#clip0_2235_19680)">
<path id="Vector" d="M154.813 9.72632C155.741 8.6102 156.886 8.04493 158.248 8.03045C158.988 8.0159 159.64 8.13914 160.205 8.40002C160.77 8.64643 161.227 8.98704 161.575 9.42194C161.995 9.92923 162.285 10.5235 162.444 11.2048C162.604 11.8715 162.684 12.618 162.684 13.4442V19.7276H159.596V13.6833C159.596 13.2775 159.553 12.8934 159.466 12.5311C159.394 12.1541 159.263 11.8353 159.075 11.5744C158.886 11.299 158.632 11.0961 158.314 10.9656C158.009 10.8351 157.661 10.7699 157.27 10.7699C156.777 10.7844 156.357 10.8931 156.009 11.0961C155.676 11.299 155.422 11.5598 155.248 11.8788C155.074 12.1832 154.951 12.5311 154.878 12.9224C154.82 13.2992 154.791 13.6833 154.791 14.0747V19.7276H151.726V8.26958H154.661L154.813 9.72632Z" fill="#6B6B6B"/>
<path id="Vector_2" d="M143.952 19.9015C142.097 19.9015 140.669 19.3797 139.669 18.3361C138.669 17.278 138.169 15.814 138.169 13.9442C138.169 13.0455 138.299 12.2338 138.56 11.5091C138.836 10.7699 139.212 10.1394 139.691 9.61752C140.184 9.09569 140.785 8.70436 141.496 8.44348C142.22 8.16805 143.039 8.03033 143.952 8.03033C144.851 8.03033 145.656 8.16805 146.366 8.44348C147.09 8.70436 147.699 9.09569 148.192 9.61752C148.699 10.1394 149.083 10.7699 149.344 11.5091C149.62 12.2338 149.757 13.0455 149.757 13.9442C149.757 15.8285 149.25 17.2924 148.235 18.3361C147.235 19.3797 145.808 19.9015 143.952 19.9015ZM143.952 10.7699C143.01 10.7699 142.315 11.0743 141.865 11.683C141.416 12.2918 141.191 13.0528 141.191 13.9659C141.191 14.8936 141.416 15.6618 141.865 16.2706C142.315 16.8794 143.01 17.1837 143.952 17.1837C144.894 17.1837 145.583 16.8794 146.018 16.2706C146.453 15.6618 146.67 14.8936 146.67 13.9659C146.67 13.0528 146.453 12.2918 146.018 11.683C145.583 11.0743 144.894 10.7699 143.952 10.7699Z" fill="#6B6B6B"/>
<path id="Vector_3" d="M134.483 2.94275C135.047 2.94275 135.504 3.10944 135.852 3.44282C136.2 3.77619 136.374 4.21828 136.374 4.76908C136.374 5.34887 136.2 5.80545 135.852 6.13883C135.504 6.45772 135.047 6.61716 134.483 6.61716C133.931 6.61716 133.475 6.45772 133.113 6.13883C132.765 5.80545 132.591 5.34887 132.591 4.76908C132.591 4.21828 132.765 3.77619 133.113 3.44282C133.475 3.10944 133.931 2.94275 134.483 2.94275ZM136.026 19.7276H132.961V8.26955H136.026V19.7276Z" fill="#6B6B6B"/>
<path id="Vector_4" d="M128.399 10.9439V15.5749C128.399 16.5605 128.899 17.0533 129.899 17.0533H131.03V19.7276H129.595C128.074 19.7856 126.979 19.4957 126.312 18.858C125.66 18.2202 125.333 17.2563 125.333 15.9662V10.9439H123.595V8.26956H125.333V5.16046H128.399V8.26956H131.139V10.9439H128.399Z" fill="#6B6B6B"/>
<path id="Vector_5" d="M119.175 18.3143C118.741 18.8941 118.211 19.3072 117.588 19.5536C116.965 19.8 116.24 19.916 115.414 19.9015C114.356 19.8725 113.471 19.5754 112.761 19.0101C112.385 18.6912 112.087 18.3143 111.87 17.8795C111.667 17.4301 111.565 16.9011 111.565 16.2923C111.58 15.6691 111.718 15.1183 111.979 14.64C112.254 14.1471 112.667 13.7413 113.218 13.4223C113.681 13.1759 114.203 13.002 114.783 12.9006C115.377 12.7991 116.022 12.7484 116.719 12.7484H119.066C119.11 12.0381 118.943 11.5091 118.567 11.1612C118.204 10.7988 117.69 10.6104 117.023 10.5959C116.806 10.5959 116.581 10.6104 116.349 10.6394C116.117 10.6684 115.899 10.7264 115.697 10.8133C115.508 10.9003 115.341 11.0235 115.197 11.183C115.066 11.3279 114.979 11.5091 114.936 11.7265H111.783C111.856 11.0308 112.044 10.4509 112.348 9.98716C112.667 9.50883 113.066 9.12471 113.544 8.8348C114.023 8.5449 114.552 8.34199 115.131 8.22603C115.725 8.09559 116.334 8.03033 116.958 8.03033C117.305 8.03033 117.661 8.05209 118.023 8.09559C118.385 8.12455 118.741 8.19701 119.088 8.31297C119.436 8.41445 119.762 8.55944 120.067 8.74786C120.386 8.92174 120.683 9.15367 120.958 9.44358C121.451 10.0088 121.755 10.6611 121.872 11.4003C122.001 12.1251 122.06 12.8353 122.045 13.5311V19.7276H119.24L119.175 18.3143ZM119.066 14.6616H116.827C116.61 14.6616 116.363 14.6834 116.088 14.7269C115.812 14.7704 115.573 14.8501 115.371 14.966C115.167 15.082 114.993 15.2342 114.849 15.4227C114.718 15.6111 114.653 15.843 114.653 16.1184C114.653 16.3503 114.696 16.5532 114.783 16.7272C114.885 16.9011 115.008 17.046 115.153 17.162C115.312 17.278 115.501 17.3722 115.719 17.4446C115.935 17.5026 116.153 17.5316 116.37 17.5316C116.791 17.5461 117.182 17.4736 117.544 17.3142C117.922 17.1548 118.248 16.9301 118.523 16.6402C118.697 16.4083 118.828 16.1474 118.914 15.8575C119.016 15.5531 119.066 15.1545 119.066 14.6616Z" fill="#6B6B6B"/>
<path id="Vector_6" d="M110.005 10.4872L104.439 17.0533H110.005V19.7276H100.438V17.4881L105.961 10.9221H100.438V8.26953H110.005V10.4872Z" fill="#6B6B6B"/>
<path id="Vector_7" d="M96.7521 2.94275C97.3169 2.94275 97.7737 3.10944 98.1217 3.44282C98.4698 3.77619 98.6438 4.21828 98.6438 4.76908C98.6438 5.34887 98.4698 5.80545 98.1217 6.13883C97.7737 6.45772 97.3169 6.61716 96.7521 6.61716C96.2008 6.61716 95.7447 6.45772 95.3824 6.13883C95.0344 5.80545 94.8604 5.34887 94.8604 4.76908C94.8604 4.21828 95.0344 3.77619 95.3824 3.44282C95.7447 3.10944 96.2008 2.94275 96.7521 2.94275ZM98.2957 19.7276H95.2301V8.26955H98.2957V19.7276Z" fill="#6B6B6B"/>
<path id="Vector_8" d="M84.8305 9.72632C85.7584 8.6102 86.903 8.04493 88.2659 8.03045C89.0048 8.0159 89.6573 8.13914 90.2229 8.40002C90.7877 8.64643 91.2445 8.98704 91.5925 9.42194C92.0126 9.92923 92.3029 10.5235 92.4619 11.2048C92.6217 11.8715 92.7012 12.618 92.7012 13.4442V19.7276H89.6138V13.6833C89.6138 13.2775 89.5703 12.8934 89.4833 12.5311C89.4113 12.1541 89.2808 11.8353 89.0918 11.5744C88.9035 11.299 88.65 11.0961 88.3312 10.9656C88.0267 10.8351 87.6786 10.7699 87.2878 10.7699C86.795 10.7844 86.3742 10.8931 86.0262 11.0961C85.6931 11.299 85.4396 11.5598 85.2656 11.8788C85.0915 12.1832 84.9685 12.5311 84.8958 12.9224C84.838 13.2992 84.8088 13.6833 84.8088 14.0747V19.7276H81.7432V8.26958H84.6783L84.8305 9.72632Z" fill="#6B6B6B"/>
<path id="Vector_9" d="M76.4768 18.3143C76.0418 18.8941 75.513 19.3072 74.8897 19.5536C74.2663 19.8 73.5417 19.916 72.7152 19.9015C71.6575 19.8725 70.7732 19.5754 70.0628 19.0101C69.6863 18.6912 69.3885 18.3143 69.1717 17.8795C68.9685 17.4301 68.8672 16.9011 68.8672 16.2923C68.8815 15.6691 69.0194 15.1183 69.2805 14.64C69.5558 14.1471 69.9684 13.7413 70.5196 13.4223C70.9832 13.1759 71.5052 13.002 72.0851 12.9006C72.6791 12.7991 73.3242 12.7484 74.0196 12.7484H76.3681C76.4116 12.0381 76.245 11.5091 75.8678 11.1612C75.5055 10.7988 74.9909 10.6104 74.3241 10.5959C74.1066 10.5959 73.8823 10.6104 73.6505 10.6394C73.4187 10.6684 73.2012 10.7264 72.9979 10.8133C72.8097 10.9003 72.6431 11.0235 72.4977 11.183C72.3678 11.3279 72.2808 11.5091 72.2373 11.7265H69.0847C69.1568 11.0308 69.345 10.4509 69.6496 9.98716C69.9684 9.50883 70.3674 9.12471 70.8459 8.8348C71.3238 8.5449 71.8533 8.34199 72.4324 8.22603C73.0272 8.09559 73.6355 8.03033 74.2589 8.03033C74.6069 8.03033 74.9624 8.05209 75.3247 8.09559C75.687 8.12455 76.0418 8.19701 76.3898 8.31297C76.7379 8.41445 77.0641 8.55944 77.368 8.74786C77.6868 8.92174 77.9845 9.15367 78.2598 9.44358C78.7526 10.0088 79.0571 10.6611 79.1727 11.4003C79.3032 12.1251 79.361 12.8353 79.3467 13.5311V19.7276H76.5421L76.4768 18.3143ZM76.3681 14.6616H74.1283C73.9115 14.6616 73.6648 14.6834 73.3895 14.7269C73.1142 14.7704 72.8749 14.8501 72.6717 14.966C72.4691 15.082 72.2951 15.2342 72.1503 15.4227C72.0198 15.6111 71.9546 15.843 71.9546 16.1184C71.9546 16.3503 71.9981 16.5532 72.0851 16.7272C72.1863 16.9011 72.3094 17.046 72.4542 17.162C72.6139 17.278 72.8022 17.3722 73.0197 17.4446C73.2372 17.5026 73.4547 17.5316 73.6722 17.5316C74.0923 17.5461 74.4839 17.4736 74.8462 17.3142C75.2227 17.1548 75.549 16.9301 75.8243 16.6402C75.9983 16.4083 76.1288 16.1474 76.2158 15.8575C76.3171 15.5531 76.3681 15.1545 76.3681 14.6616Z" fill="#6B6B6B"/>
<path id="Vector_10" d="M63.765 18.5535C63.3302 19.0463 62.8084 19.3942 62.1996 19.5971C61.5908 19.8 60.9313 19.9015 60.2211 19.9015C59.5108 19.9015 58.8151 19.7928 58.1338 19.5754C57.4671 19.3435 56.8873 18.9738 56.3944 18.4665C55.8437 17.8867 55.4595 17.22 55.2422 16.4663C55.0247 15.7125 54.916 14.9371 54.916 14.1399C54.916 12.2556 55.4378 10.7481 56.4815 9.61751C56.9308 9.1247 57.5106 8.74059 58.2208 8.46522C58.9455 8.18979 59.721 8.05935 60.5472 8.07383C61.0835 8.04487 61.6633 8.13909 62.2865 8.35647C62.9099 8.57391 63.4461 8.93628 63.8955 9.44357L64.2216 8.26953H66.8742V19.01C66.8742 19.4739 66.8451 19.9305 66.7871 20.3799C66.7436 20.8436 66.664 21.2857 66.548 21.7061C66.4321 22.1409 66.2581 22.5541 66.0262 22.9454C65.7653 23.4237 65.4464 23.8296 65.0695 24.1629C64.7071 24.4963 64.3013 24.7717 63.852 24.9892C63.4027 25.2211 62.9243 25.3877 62.417 25.4892C61.9097 25.5907 61.3951 25.6414 60.8733 25.6414C60.2065 25.6414 59.5688 25.5617 58.96 25.4022C58.3513 25.2573 57.7932 25.0109 57.2859 24.663C56.793 24.3296 56.38 23.902 56.0466 23.3802C55.7277 22.8584 55.5175 22.2351 55.4161 21.5104H58.6774C58.7354 21.8583 58.9672 22.1699 59.3731 22.4453C59.779 22.7207 60.2718 22.8584 60.8516 22.8584C61.4749 22.8584 61.9822 22.7352 62.3735 22.4888C62.7793 22.2424 63.0837 21.9163 63.2867 21.5104C63.4896 21.1046 63.62 20.6407 63.678 20.1189C63.736 19.5971 63.765 19.0753 63.765 18.5535ZM60.9168 17.1837C61.3951 17.1837 61.8155 17.0968 62.1779 16.9228C62.5547 16.7489 62.8591 16.517 63.091 16.2271C63.3229 15.9227 63.4969 15.5749 63.6128 15.1835C63.7288 14.7776 63.7868 14.35 63.7868 13.9007C63.7868 13.0021 63.5331 12.2628 63.0258 11.683C62.5329 11.0887 61.8228 10.7843 60.8951 10.7699C60.4167 10.7699 59.9892 10.8568 59.6123 11.0308C59.25 11.2047 58.9456 11.4366 58.6991 11.7265C58.4672 12.0164 58.2933 12.357 58.1773 12.7484C58.0614 13.1397 58.0034 13.5601 58.0034 14.0094C58.0034 14.4878 58.0614 14.9226 58.1773 15.3139C58.3078 15.6908 58.4962 16.0242 58.7426 16.3141C58.989 16.5894 59.2934 16.8069 59.6558 16.9664C60.0181 17.1113 60.4385 17.1837 60.9168 17.1837Z" fill="#6B6B6B"/>
<path id="Vector_11" d="M49.6254 9.70456C50.0892 9.15377 50.5821 8.74069 51.1039 8.46526C51.6402 8.18983 52.278 8.05219 53.0172 8.05219C53.2056 8.05219 53.3868 8.05939 53.5607 8.07394C53.7346 8.08842 53.8941 8.11017 54.039 8.13912V10.9656C53.7057 10.9656 53.3651 10.9728 53.0172 10.9874C52.6838 10.9874 52.3649 11.0163 52.0605 11.0743C51.7561 11.1323 51.459 11.2265 51.1691 11.3569C50.8937 11.4729 50.6473 11.6468 50.4299 11.8788C50.0965 12.2556 49.8863 12.6615 49.7994 13.0963C49.7268 13.5311 49.6906 14.0239 49.6906 14.5748V19.7276H46.625V8.26957H49.4515L49.6254 9.70456Z" fill="#6B6B6B"/>
<path id="Vector_12" d="M38.8517 19.9015C36.9964 19.9015 35.5687 19.3797 34.5685 18.3361C33.5684 17.278 33.0684 15.814 33.0684 13.9442C33.0684 13.0455 33.1988 12.2338 33.4597 11.5091C33.7351 10.7699 34.112 10.1394 34.5903 9.61752C35.0831 9.09569 35.6847 8.70436 36.3949 8.44348C37.1196 8.16805 37.9385 8.03033 38.8517 8.03033C39.7504 8.03033 40.5548 8.16805 41.2651 8.44348C41.9898 8.70436 42.5986 9.09569 43.0914 9.61752C43.5987 10.1394 43.9828 10.7699 44.2438 11.5091C44.5191 12.2338 44.6569 13.0455 44.6569 13.9442C44.6569 15.8285 44.1496 17.2924 43.1349 18.3361C42.1348 19.3797 40.707 19.9015 38.8517 19.9015ZM38.8517 10.7699C37.9096 10.7699 37.2138 11.0743 36.7645 11.683C36.3152 12.2918 36.0905 13.0528 36.0905 13.9659C36.0905 14.8936 36.3152 15.6618 36.7645 16.2706C37.2138 16.8794 37.9096 17.1837 38.8517 17.1837C39.7939 17.1837 40.4824 16.8794 40.9172 16.2706C41.352 15.6618 41.5695 14.8936 41.5695 13.9659C41.5695 13.0528 41.352 12.2918 40.9172 11.683C40.4824 11.0743 39.7939 10.7699 38.8517 10.7699Z" fill="#6B6B6B"/>
<path id="Vector_13" d="M12.1104 3.01062C12.1104 2.11707 11.3824 1.38073 10.4981 1.50926C9.58065 1.64262 8.68122 1.88956 7.82087 2.24593C6.46095 2.80924 5.22527 3.63489 4.18442 4.67574C3.14356 5.7166 2.31791 6.95228 1.7546 8.31225C1.1913 9.67213 0.901367 11.1298 0.901367 12.6017C0.901367 14.0737 1.1913 15.5313 1.7546 16.8913C2.31791 18.2512 3.14356 19.4869 4.18442 20.5277C5.22527 21.5685 6.46095 22.3942 7.82087 22.9575C9.18082 23.5208 10.6384 23.8108 12.1104 23.8108V18.4304C11.345 18.4304 10.587 18.2796 9.87986 17.9867C9.17267 17.6938 8.53011 17.2645 7.98891 16.7232C7.44764 16.182 7.01831 15.5394 6.72539 14.8323C6.43246 14.1251 6.2817 13.3672 6.2817 12.6017C6.2817 11.8363 6.43247 11.0784 6.72539 10.3712C7.01831 9.66404 7.44764 9.02149 7.98891 8.48021C8.53011 7.939 9.17267 7.50962 9.87986 7.21672C10.087 7.13093 10.2984 7.05733 10.5132 6.99615C11.3725 6.75129 12.1104 6.04866 12.1104 5.15511V3.01062Z" fill="#6B6B6B"/>
<path id="Vector_14" d="M21.5501 12.6018C22.4437 12.6018 23.1799 13.3299 23.0514 14.2141C22.9181 15.1316 22.6712 16.031 22.3148 16.8914C21.7515 18.2512 20.9258 19.4869 19.8849 20.5278C18.8441 21.5686 17.6084 22.3943 16.2485 22.9576C14.8885 23.5209 13.431 23.8109 11.959 23.8109V18.4305C12.7244 18.4305 13.4823 18.2797 14.1895 17.9868C14.8967 17.6939 15.5392 17.2646 16.0805 16.7233C16.6217 16.182 17.051 15.5396 17.344 14.8324C17.4298 14.6252 17.5034 14.4138 17.5646 14.1991C17.8094 13.3397 18.5121 12.6018 19.4056 12.6018H21.5501Z" fill="#6B6B6B"/>
<path id="Vector_15" d="M23.4417 1.39777C24.3353 1.39776 25.0716 2.12583 24.9431 3.01009C24.8097 3.92751 24.5628 4.82693 24.2064 5.68727C23.6431 7.04721 22.8174 8.28289 21.7766 9.32377C20.7357 10.3646 19.5 11.1903 18.1401 11.7536C17.2797 12.1099 16.3804 12.3569 15.4629 12.4903C14.5787 12.6188 13.8506 11.8824 13.8506 10.9889V8.84435C13.8506 7.95084 14.5884 7.24819 15.4478 7.00334C15.6626 6.94216 15.874 6.86857 16.0811 6.78278C16.7883 6.48986 17.4308 6.06052 17.9721 5.51928C18.5133 4.97803 18.9427 4.33548 19.2356 3.62831C19.3214 3.4212 19.395 3.20973 19.4562 2.995C19.701 2.13565 20.4037 1.39777 21.2972 1.39777H23.4417Z" fill="#6B6B6B"/>
</g>
<defs>
<clipPath id="clip0_2235_19680">
<rect width="163.137" height="25.83" fill="white" transform="translate(0.831055 0.274963)"/>
</clipPath>
</defs>
</svg>
