<svg width="155" height="38" viewBox="0 0 155 38" fill="none" xmlns="http://www.w3.org/2000/svg">
<g id="64e5653b4b454c5ceaeed9e3_logo-startply-x-webflow-template.svg" clip-path="url(#clip0_2235_20176)">
<path id="Vector" d="M51.4931 9.5637C50.9369 9.5637 50.3707 9.61336 49.7946 9.71269C49.2384 9.81201 48.7319 9.9908 48.275 10.249C47.8181 10.4874 47.4407 10.8251 47.1427 11.2622C46.8646 11.6793 46.7255 12.2157 46.7255 12.8712C46.7255 13.6658 46.9341 14.3114 47.3513 14.808C47.7684 15.2848 48.275 15.6523 48.8709 15.9105C49.3477 16.1092 49.8542 16.278 50.3906 16.4171C50.9269 16.5561 51.4732 16.6853 52.0294 16.8045C52.6055 16.9236 53.1617 17.0428 53.6981 17.162C54.2543 17.2812 54.7907 17.4302 55.3071 17.609C56.5189 18.0261 57.4823 18.6221 58.1975 19.3968C58.9325 20.1716 59.3 21.1946 59.3 22.4659C59.3 23.6578 59.0914 24.6411 58.6742 25.4159C58.2769 26.1906 57.7307 26.8263 57.0354 27.3229C56.36 27.8195 55.5654 28.187 54.6516 28.4254C53.7577 28.6439 52.8042 28.7532 51.7911 28.7532C50.778 28.7532 49.8046 28.6539 48.8709 28.4552C47.9571 28.2566 47.1228 27.9288 46.3679 27.4719C45.6131 27.015 44.9675 26.4191 44.4311 25.6841C43.8948 24.9491 43.5173 24.0551 43.2988 23.0023H46.0104C46.209 23.6777 46.5169 24.2339 46.9341 24.6709C47.3513 25.108 47.828 25.4556 48.3644 25.7138C48.9007 25.9721 49.4768 26.1509 50.0926 26.2502C50.7283 26.3495 51.354 26.3992 51.9698 26.3992C52.5658 26.3992 53.1419 26.3396 53.6981 26.2204C54.2742 26.0814 54.7807 25.8728 55.2177 25.5947C55.6548 25.3166 56.0024 24.959 56.2607 24.522C56.5189 24.0849 56.648 23.5585 56.648 22.9427C56.648 22.0091 56.3997 21.3138 55.9031 20.8569C55.4065 20.4 54.741 20.0524 53.9067 19.814C53.3504 19.6352 52.7644 19.4862 52.1486 19.367C51.5328 19.2478 50.917 19.1187 50.3012 18.9797C49.6854 18.8406 49.0795 18.6817 48.4836 18.5029C47.8876 18.3043 47.3413 18.0758 46.8447 17.8176C46.0501 17.4401 45.3846 16.8641 44.8483 16.0893C44.3119 15.2947 44.0438 14.3015 44.0438 13.1096C44.0438 11.9972 44.2623 11.0635 44.6993 10.3086C45.1363 9.55377 45.7025 8.94789 46.3977 8.491C47.093 8.03411 47.8677 7.70634 48.7219 7.50769C49.596 7.30904 50.5197 7.20972 51.4931 7.20972C52.2877 7.22958 53.0028 7.29911 53.6385 7.4183C54.294 7.51762 54.9098 7.70634 55.4859 7.98445C56.3798 8.38174 57.1248 8.97769 57.7207 9.77228C58.3167 10.5669 58.6444 11.5899 58.704 12.8414H56.1713C56.0918 12.2256 55.9031 11.7091 55.6051 11.292C55.327 10.8748 54.9794 10.5371 54.5622 10.2788C54.145 10.0206 53.6683 9.84181 53.1319 9.74249C52.6155 9.6233 52.0692 9.5637 51.4931 9.5637ZM66.9979 12.8116H71.8251V15.0464H66.9979V23.2109C66.9979 23.6678 67.0178 24.0949 67.0575 24.4922C67.1171 24.8696 67.2164 25.2073 67.3555 25.5053C67.5144 25.7834 67.7329 26.0118 68.011 26.1906C68.309 26.3495 68.7063 26.4389 69.2029 26.4588C69.6598 26.4588 70.0571 26.3793 70.3948 26.2204C70.7524 26.0615 71.0503 25.8728 71.2887 25.6543L72.3912 27.5017C71.8747 27.9387 71.3384 28.2466 70.7822 28.4254C70.226 28.6042 69.6101 28.6936 68.9347 28.6936C68.0805 28.6936 67.3654 28.5744 66.7893 28.336C66.2132 28.0778 65.7266 27.7103 65.3293 27.2335C64.9916 26.7766 64.7631 26.2403 64.6439 25.6245C64.5247 25.0086 64.4651 24.3134 64.4651 23.5386V15.0464H61.9026V12.8116H64.4651V8.10364H66.9979V12.8116ZM85.1887 26.5184C84.851 26.9753 84.4636 27.3428 84.0266 27.6209C83.5895 27.899 83.1326 28.1175 82.6559 28.2764C82.199 28.4353 81.7322 28.5446 81.2554 28.6042C80.7985 28.6638 80.3416 28.6936 79.8847 28.6936C79.1497 28.6936 78.4545 28.6042 77.7989 28.4254C77.1434 28.2466 76.5474 27.9586 76.0111 27.5613C75.4946 27.164 75.0775 26.6674 74.7596 26.0714C74.4616 25.4755 74.3126 24.8001 74.3126 24.0452C74.3126 23.1513 74.4716 22.4063 74.7894 21.8104C75.1271 21.1946 75.5741 20.698 76.1303 20.3205C76.6865 19.9431 77.3222 19.6849 78.0373 19.5458C78.7723 19.3869 79.547 19.3074 80.3615 19.3074H84.9801C84.9801 17.9765 84.692 16.9236 84.116 16.1489C83.5399 15.3543 82.5665 14.9372 81.1958 14.8974C80.3615 14.8974 79.6265 15.0365 78.9908 15.3146C78.3551 15.5927 77.9181 16.0496 77.6797 16.6853H74.9682C75.1072 15.9701 75.3854 15.3643 75.8025 14.8676C76.2197 14.3511 76.7163 13.934 77.2924 13.6161C77.8685 13.2784 78.4942 13.0301 79.1696 12.8712C79.845 12.7123 80.5204 12.6328 81.1958 12.6328C82.3679 12.6328 83.3512 12.8315 84.1458 13.2288C84.9602 13.6062 85.6158 14.1128 86.1124 14.7484C86.609 15.3643 86.9566 16.1191 87.1553 17.013C87.3539 17.907 87.4533 18.9101 87.4533 20.0226V28.5148H85.3376L85.1887 26.5184ZM82.2089 21.423C81.7322 21.423 81.176 21.433 80.5403 21.4528C79.9245 21.4528 79.3285 21.5124 78.7524 21.6316C78.1764 21.7508 77.7095 21.9991 77.352 22.3766C77.0143 22.754 76.8454 23.2506 76.8454 23.8664C76.8454 24.3233 76.9348 24.7107 77.1136 25.0285C77.2924 25.3463 77.5308 25.6145 77.8287 25.833C78.1466 26.0516 78.5041 26.2105 78.9014 26.3098C79.2987 26.4091 79.706 26.4588 80.1231 26.4588C81.613 26.4588 82.785 26.1012 83.6392 25.3861C84.5133 24.6511 84.9602 23.5883 84.9801 22.1978V21.423H82.2089ZM91.3772 28.5148V12.8116H93.8205L93.9397 15.255C94.5158 14.3412 95.2508 13.6757 96.1447 13.2586C97.0386 12.8414 98.0518 12.6328 99.1841 12.6328H99.9887V15.0166H99.0649C98.1312 15.0166 97.3366 15.1755 96.6811 15.4934C96.0255 15.7913 95.4892 16.2085 95.072 16.7449C94.6747 17.2613 94.3768 17.8772 94.1781 18.5923C93.9993 19.3074 93.9099 20.0623 93.9099 20.8569V28.5148H91.3772ZM107.359 12.8116H111.56V15.0464H107.359V23.1811C107.359 24.2538 107.567 25.0484 107.984 25.5649C108.401 26.0615 109.176 26.3098 110.308 26.3098H111.471V28.5148H109.772C107.984 28.5148 106.713 28.1076 105.958 27.2931C105.203 26.4786 104.826 25.1974 104.826 23.4493V15.0464H102.263V12.8116H104.826V8.13343H107.359V12.8116ZM114.423 34.1763V12.8116H116.837L116.956 15.1656C117.493 14.3511 118.218 13.7353 119.131 13.3182C120.065 12.8811 121.068 12.6527 122.141 12.6328C123.353 12.6328 124.376 12.8414 125.21 13.2586C126.064 13.6559 126.77 14.222 127.326 14.957C127.902 15.6722 128.329 16.5263 128.607 17.5196C128.885 18.493 129.024 19.5458 129.024 20.6781C129.024 21.8303 128.885 22.893 128.607 23.8664C128.329 24.8398 127.902 25.6841 127.326 26.3992C126.75 27.1143 126.025 27.6805 125.151 28.0976C124.276 28.4949 123.234 28.6936 122.022 28.6936C120.83 28.6936 119.817 28.5049 118.982 28.1274C118.148 27.75 117.473 27.2236 116.956 26.5482V34.1763H114.423ZM121.813 26.4588C122.667 26.4588 123.383 26.3098 123.959 26.0118C124.555 25.694 125.031 25.2768 125.389 24.7603C125.766 24.224 126.035 23.6082 126.193 22.9129C126.372 22.2176 126.472 21.4727 126.491 20.6781C126.491 19.8835 126.402 19.1386 126.223 18.4433C126.064 17.7282 125.796 17.1124 125.419 16.5959C125.041 16.0794 124.545 15.6722 123.929 15.3742C123.333 15.0563 122.608 14.8974 121.754 14.8974C120.741 14.8974 119.866 15.1755 119.131 15.7318C118.396 16.2681 117.84 16.9534 117.463 17.7878C117.244 18.2447 117.095 18.7214 117.016 19.218C116.936 19.6948 116.897 20.1914 116.897 20.7079C116.897 21.3038 116.936 21.8601 117.016 22.3766C117.095 22.8732 117.244 23.3499 117.463 23.8068C117.84 24.5617 118.387 25.1974 119.102 25.7138C119.837 26.2105 120.741 26.4588 121.813 26.4588ZM132.407 28.5148V7.44809H134.94V28.5148H132.407ZM152.721 12.8116V28.5148C152.721 30.7993 152.125 32.5374 150.933 33.7293C149.741 34.9411 148.043 35.547 145.838 35.547C144.507 35.5271 143.305 35.3483 142.232 35.0106C141.179 34.6928 140.206 34.1167 139.312 33.2824L140.415 31.2859C141.189 31.9018 142.014 32.3884 142.888 32.746C143.782 33.1036 144.715 33.2824 145.689 33.2824C146.503 33.2824 147.199 33.1532 147.775 32.895C148.351 32.6566 148.818 32.309 149.175 31.8521C149.553 31.4151 149.821 30.8886 149.98 30.2728C150.158 29.657 150.248 28.9916 150.248 28.2764V26.3992C149.99 26.7965 149.662 27.1541 149.264 27.4719C148.887 27.7699 148.47 28.0182 148.013 28.2168C147.576 28.3956 147.099 28.5247 146.583 28.6042C146.086 28.7035 145.58 28.7532 145.063 28.7532C143.871 28.7333 142.878 28.5446 142.083 28.187C141.309 27.8295 140.683 27.3328 140.206 26.6972C139.749 26.0615 139.421 25.3066 139.223 24.4326C139.024 23.5386 138.925 22.5553 138.925 21.4826V12.8116H141.458V20.7675C141.458 21.4826 141.497 22.1878 141.577 22.8831C141.676 23.5784 141.865 24.1942 142.143 24.7305C142.421 25.2669 142.828 25.7039 143.365 26.0416C143.901 26.3595 144.616 26.5184 145.51 26.5184C146.404 26.5184 147.159 26.3297 147.775 25.9522C148.41 25.5748 148.897 25.098 149.235 24.522C149.612 23.926 149.86 23.2705 149.98 22.5553C150.119 21.8402 150.188 21.1052 150.188 20.3503V12.8116H152.721Z" fill="#131313"/>
<path id="Vector_2" d="M0.424805 18.5906V8.0459H3.43276C5.91155 8.0459 8.2535 9.18242 9.7873 11.1297L15.664 18.5906V29.063H12.7936C10.3599 29.063 8.05555 27.9674 6.51945 26.0797L0.424805 18.5906Z" fill="#063137"/>
<path id="Vector_3" d="M15.6641 18.5906V8.0459H18.672C21.1508 8.0459 23.4928 9.18242 25.0266 11.1297L30.0792 17.5443C30.5996 18.205 31.3942 18.5906 32.2351 18.5906H33.4311V29.063H28.0328C25.5992 29.063 23.2949 27.9674 21.7587 26.0797L15.6641 18.5906Z" fill="#06C35D"/>
</g>
<defs>
<clipPath id="clip0_2235_20176">
<rect width="154.946" height="36.75" fill="white" transform="translate(0.0273438 0.625)"/>
</clipPath>
</defs>
</svg>
