<svg width="164" height="36" viewBox="0 0 164 36" fill="none" xmlns="http://www.w3.org/2000/svg">
<g id="6552b4d1230b903d6ea44503_application-logo-home-v3-startply-x-webflow-template.svg" clip-path="url(#clip0_2235_19629)">
<path id="Vector" d="M152.005 13.363H154.929L155.043 14.8933C155.423 14.3146 155.895 13.8731 156.459 13.5685C157.037 13.2489 157.677 13.0889 158.377 13.0889C161.224 13.0889 162.641 14.8324 162.626 18.3191V18.9358H162.648V24.7827H159.565V18.9358H159.543C159.543 17.8395 159.352 17.0782 158.971 16.6519C158.606 16.2103 158.073 15.9895 157.373 15.9895C156.626 15.9895 156.055 16.2331 155.66 16.7204C155.279 17.1924 155.088 17.8775 155.088 18.7759V24.7827H152.005V13.363Z" fill="#6B6B6B"/>
<path id="Vector_2" d="M144.102 25.0567C142.945 25.0567 141.909 24.8055 140.996 24.303C140.083 23.7853 139.367 23.0773 138.849 22.179C138.347 21.2654 138.096 20.23 138.096 19.0728C138.096 17.9156 138.347 16.8879 138.849 15.9895C139.367 15.0759 140.075 14.3679 140.973 13.8655C141.872 13.3478 142.899 13.0889 144.056 13.0889C145.214 13.0889 146.242 13.3478 147.14 13.8655C148.054 14.3679 148.762 15.0759 149.264 15.9895C149.781 16.8879 150.04 17.9156 150.04 19.0728C150.04 20.23 149.789 21.2654 149.287 22.179C148.784 23.0773 148.076 23.7853 147.162 24.303C146.264 24.8055 145.244 25.0567 144.102 25.0567ZM141.27 19.0728C141.27 20.0016 141.529 20.7629 142.047 21.3568C142.58 21.9353 143.265 22.2246 144.102 22.2246C144.925 22.2246 145.594 21.9353 146.112 21.3568C146.629 20.7629 146.889 20.0016 146.889 19.0728C146.889 18.144 146.622 17.3903 146.089 16.8118C145.571 16.2179 144.894 15.921 144.056 15.921C143.249 15.921 142.58 16.2179 142.047 16.8118C141.529 17.3903 141.27 18.144 141.27 19.0728Z" fill="#6B6B6B"/>
<path id="Vector_3" d="M132.873 13.363H135.956V24.7826H132.873V13.363ZM134.426 11.5587C133.939 11.5587 133.52 11.3836 133.169 11.0335C132.82 10.6832 132.645 10.2721 132.645 9.80014C132.645 9.31284 132.82 8.89413 133.169 8.54394C133.535 8.19375 133.954 8.01862 134.426 8.01862C134.898 8.01862 135.309 8.19375 135.659 8.54394C136.009 8.89413 136.184 9.31284 136.184 9.80014C136.184 10.2721 136.009 10.6832 135.659 11.0335C135.324 11.3836 134.913 11.5587 134.426 11.5587Z" fill="#6B6B6B"/>
<path id="Vector_4" d="M128.207 25.0567C126.943 25.0567 125.976 24.7445 125.306 24.1202C124.652 23.496 124.324 22.5977 124.324 21.4253V15.9667H122.497V13.363H124.324V9.80005H127.407V13.363H130.239V15.9667H127.407V20.7401C127.407 21.2425 127.506 21.6155 127.704 21.8592C127.917 22.0875 128.237 22.2018 128.664 22.2018C128.968 22.2018 129.31 22.0647 129.691 21.7907L130.788 24.0974C130.407 24.3867 129.988 24.6152 129.531 24.7826C129.074 24.9653 128.633 25.0567 128.207 25.0567Z" fill="#6B6B6B"/>
<path id="Vector_5" d="M118.107 23.4808C117.468 24.5314 116.417 25.0567 114.956 25.0567C113.585 25.0567 112.519 24.7522 111.758 24.1431C111.012 23.5341 110.639 22.6738 110.639 21.5623C110.639 20.3594 111.043 19.4458 111.85 18.8216C112.657 18.1973 113.798 17.8852 115.275 17.8852H117.993C117.78 16.4692 117.087 15.7611 115.915 15.7611C114.91 15.7611 114.149 16.1875 113.63 17.0401L110.913 16.1037C111.278 15.2511 111.872 14.5354 112.694 13.9568C113.531 13.3782 114.605 13.0889 115.915 13.0889C117.62 13.0889 118.914 13.5685 119.797 14.5278C120.681 15.4718 121.107 16.7813 121.076 18.4562L121.031 24.7827H118.153L118.107 23.4808ZM113.791 21.4709C113.791 21.7907 113.943 22.0496 114.248 22.2475C114.552 22.4302 114.97 22.5216 115.504 22.5216C115.975 22.5216 116.402 22.4074 116.782 22.179C117.178 21.9506 117.49 21.6537 117.719 21.2883C117.947 20.9228 118.061 20.5422 118.061 20.1463H116.371C115.442 20.1463 114.78 20.2604 114.384 20.4889C113.988 20.702 113.791 21.0294 113.791 21.4709Z" fill="#6B6B6B"/>
<path id="Vector_6" d="M104.315 25.0567C103.127 25.0567 102.069 24.8055 101.14 24.303C100.212 23.7853 99.4807 23.0773 98.9476 22.179C98.4301 21.2654 98.1709 20.23 98.1709 19.0728C98.1709 17.9156 98.4301 16.8879 98.9476 15.9895C99.4652 15.0759 100.189 14.3679 101.118 13.8655C102.046 13.3478 103.097 13.0889 104.27 13.0889C105.442 13.0889 106.492 13.3782 107.421 13.9568C108.365 14.5354 109.05 15.35 109.476 16.4006L106.576 17.4284C106.363 16.9868 106.036 16.6366 105.594 16.3778C105.153 16.119 104.665 15.9895 104.132 15.9895C103.31 15.9895 102.64 16.2788 102.122 16.8575C101.605 17.4208 101.346 18.1593 101.346 19.0728C101.346 19.9712 101.605 20.7096 102.122 21.2883C102.656 21.8668 103.341 22.1561 104.178 22.1561C104.711 22.1561 105.198 22.0191 105.64 21.745C106.081 21.4557 106.408 21.075 106.622 20.603L109.545 21.6309C109.103 22.7118 108.418 23.5569 107.489 24.166C106.561 24.7598 105.503 25.0567 104.315 25.0567Z" fill="#6B6B6B"/>
<path id="Vector_7" d="M92.9489 13.363H96.0321V24.7826H92.9489V13.363ZM94.5016 11.5587C94.0143 11.5587 93.5956 11.3836 93.2457 11.0335C92.8957 10.6832 92.7207 10.2721 92.7207 9.80014C92.7207 9.31284 92.8957 8.89413 93.2457 8.54394C93.6111 8.19375 94.0298 8.01862 94.5016 8.01862C94.9741 8.01862 95.3846 8.19375 95.7353 8.54394C96.0853 8.89413 96.2603 9.31284 96.2603 9.80014C96.2603 10.2721 96.0853 10.6832 95.7353 11.0335C95.4001 11.3836 94.9889 11.5587 94.5016 11.5587Z" fill="#6B6B6B"/>
<path id="Vector_8" d="M87.1006 8.33838H90.1839V24.7827H87.1006V8.33838Z" fill="#6B6B6B"/>
<path id="Vector_9" d="M73.498 13.363H76.4216L76.536 14.9389C76.9162 14.3451 77.3962 13.8883 77.9743 13.5685C78.5686 13.2489 79.2457 13.0889 80.0069 13.0889C81.0428 13.0889 81.9487 13.3326 82.7254 13.8198C83.5169 14.307 84.1179 14.9998 84.5292 15.8981C84.956 16.7965 85.1686 17.8547 85.1686 19.0728C85.1686 20.2757 84.956 21.3339 84.5292 22.2475C84.1179 23.1458 83.5169 23.8386 82.7254 24.3258C81.9487 24.8131 81.0428 25.0567 80.0069 25.0567C79.2612 25.0567 78.5989 24.9045 78.02 24.5999C77.4419 24.2801 76.962 23.831 76.581 23.2524V29.3505H73.498V13.363ZM76.581 19.0728C76.581 20.0016 76.8247 20.7629 77.312 21.3568C77.8148 21.9353 78.4542 22.2246 79.2309 22.2246C80.0224 22.2246 80.6773 21.9277 81.1949 21.3339C81.7124 20.7401 81.9716 19.9864 81.9716 19.0728C81.9716 18.1593 81.7124 17.4132 81.1949 16.8346C80.6921 16.2407 80.0453 15.9438 79.2538 15.9438C78.4616 15.9438 77.8148 16.2331 77.312 16.8118C76.8247 17.3903 76.581 18.144 76.581 19.0728Z" fill="#6B6B6B"/>
<path id="Vector_10" d="M59.7803 13.363H62.7037L62.8178 14.9389C63.1985 14.3451 63.6782 13.8883 64.2567 13.5685C64.8506 13.2489 65.5281 13.0889 66.2894 13.0889C67.3248 13.0889 68.2308 13.3326 69.0073 13.8198C69.7991 14.307 70.4005 14.9998 70.8116 15.8981C71.2379 16.7965 71.4511 17.8547 71.4511 19.0728C71.4511 20.2757 71.2379 21.3339 70.8116 22.2475C70.4005 23.1458 69.7991 23.8386 69.0073 24.3258C68.2308 24.8131 67.3248 25.0567 66.2894 25.0567C65.5433 25.0567 64.881 24.9045 64.3024 24.5999C63.7238 24.2801 63.2442 23.831 62.8635 23.2524V29.3505H59.7803V13.363ZM62.8635 19.0728C62.8635 20.0016 63.1071 20.7629 63.5944 21.3568C64.0969 21.9353 64.7363 22.2246 65.5129 22.2246C66.3046 22.2246 66.9594 21.9277 67.4771 21.3339C67.9947 20.7401 68.2536 19.9864 68.2536 19.0728C68.2536 18.1593 67.9947 17.4132 67.4771 16.8346C66.9746 16.2407 66.3275 15.9438 65.5357 15.9438C64.7439 15.9438 64.0969 16.2331 63.5944 16.8118C63.1071 17.3903 62.8635 18.144 62.8635 19.0728Z" fill="#6B6B6B"/>
<path id="Vector_11" d="M54.318 23.4808C53.6785 24.5314 52.628 25.0567 51.1662 25.0567C49.7959 25.0567 48.7301 24.7522 47.9687 24.1431C47.2226 23.5341 46.8496 22.6738 46.8496 21.5623C46.8496 20.3594 47.2531 19.4458 48.0601 18.8216C48.8671 18.1973 50.009 17.8852 51.486 17.8852H54.2039C53.9907 16.4692 53.2979 15.7611 52.1254 15.7611C51.1206 15.7611 50.3592 16.1875 49.8416 17.0401L47.1237 16.1037C47.4891 15.2511 48.0829 14.5354 48.9051 13.9568C49.7425 13.3782 50.816 13.0889 52.1254 13.0889C53.8308 13.0889 55.125 13.5685 56.0081 14.5278C56.8912 15.4718 57.3175 16.7813 57.2871 18.4562L57.2414 24.7827H54.3637L54.318 23.4808ZM50.0014 21.4709C50.0014 21.7907 50.1536 22.0496 50.4582 22.2475C50.7627 22.4302 51.1814 22.5216 51.7143 22.5216C52.1864 22.5216 52.6127 22.4074 52.9934 22.179C53.3892 21.9506 53.7013 21.6537 53.9298 21.2883C54.1582 20.9228 54.2724 20.5422 54.2724 20.1463H52.5822C51.6534 20.1463 50.9911 20.2604 50.5952 20.4889C50.1994 20.702 50.0014 21.0294 50.0014 21.4709Z" fill="#6B6B6B"/>
<path id="Vector_12" fill-rule="evenodd" clip-rule="evenodd" d="M15.4946 29.0995H25.9766C32.3778 29.0995 37.567 23.9104 37.567 17.5092C37.567 11.7201 32.874 7.0271 27.0848 7.0271H26.5307C24.0373 7.0271 21.737 7.85397 19.8891 9.24854C18.5108 7.87568 16.6099 7.0271 14.5109 7.0271H14.2672C10.3651 7.0271 7.17048 10.0566 6.90711 13.8918C3.17162 14.255 0.251953 17.4038 0.251953 21.2346C0.251953 25.5783 3.77318 29.0995 8.11684 29.0995H15.4946Z" fill="#6B6B6B"/>
</g>
<defs>
<clipPath id="clip0_2235_19629">
<rect width="163.172" height="35.44" fill="white" transform="translate(0.0146484 0.469971)"/>
</clipPath>
</defs>
</svg>
