<svg width="110" height="29" viewBox="0 0 110 29" fill="none" xmlns="http://www.w3.org/2000/svg">
<path d="M8.49308 2.5637C7.93687 2.5637 7.37072 2.61336 6.79464 2.71269C6.23842 2.81201 5.73187 2.9908 5.27498 3.24904C4.81809 3.48742 4.44066 3.82513 4.14268 4.26216C3.86457 4.67932 3.72552 5.21567 3.72552 5.87121C3.72552 6.66581 3.9341 7.31142 4.35126 7.80804C4.76842 8.28479 5.27498 8.65229 5.87092 8.91054C6.34768 9.10919 6.85424 9.27804 7.39059 9.41709C7.92694 9.55615 8.47322 9.68527 9.02944 9.80446C9.60552 9.92365 10.1617 10.0428 10.6981 10.162C11.2543 10.2812 11.7907 10.4302 12.3071 10.609C13.5189 11.0261 14.4823 11.6221 15.1975 12.3968C15.9325 13.1716 16.3 14.1946 16.3 15.4659C16.3 16.6578 16.0914 17.6411 15.6742 18.4159C15.2769 19.1906 14.7307 19.8263 14.0354 20.3229C13.36 20.8195 12.5654 21.187 11.6516 21.4254C10.7577 21.6439 9.80417 21.7532 8.79106 21.7532C7.77795 21.7532 6.80457 21.6539 5.87092 21.4552C4.95714 21.2566 4.12281 20.9288 3.36795 20.4719C2.61309 20.015 1.96748 19.4191 1.43113 18.6841C0.894777 17.9491 0.517342 17.0551 0.298828 16.0023H3.01039C3.20903 16.6777 3.51694 17.2339 3.9341 17.6709C4.35126 18.108 4.82802 18.4556 5.36437 18.7138C5.90072 18.9721 6.4768 19.1509 7.09261 19.2502C7.72829 19.3495 8.35403 19.3992 8.96984 19.3992C9.56579 19.3992 10.1419 19.3396 10.6981 19.2204C11.2742 19.0814 11.7807 18.8728 12.2177 18.5947C12.6548 18.3166 13.0024 17.959 13.2607 17.522C13.5189 17.0849 13.648 16.5585 13.648 15.9427C13.648 15.0091 13.3997 14.3138 12.9031 13.8569C12.4065 13.4 11.741 13.0524 10.9067 12.814C10.3504 12.6352 9.76444 12.4862 9.14863 12.367C8.53281 12.2478 7.91701 12.1187 7.3012 11.9797C6.68539 11.8406 6.0795 11.6817 5.48356 11.5029C4.88761 11.3043 4.34133 11.0758 3.84471 10.8176C3.05012 10.4401 2.38464 9.86405 1.84829 9.08932C1.31194 8.29473 1.04376 7.30148 1.04376 6.10959C1.04376 4.99716 1.26227 4.06351 1.6993 3.30864C2.13633 2.55377 2.70248 1.94789 3.39775 1.491C4.09302 1.03411 4.86775 0.706339 5.72194 0.50769C6.59599 0.309041 7.51971 0.209717 8.49308 0.209717C9.28768 0.229582 10.0028 0.299109 10.6385 0.418298C11.294 0.517622 11.9098 0.706338 12.4859 0.984446C13.3798 1.38174 14.1248 1.97769 14.7207 2.77228C15.3167 3.56689 15.6444 4.58993 15.704 5.84142H13.1713C13.0918 5.22561 12.9031 4.70912 12.6051 4.29196C12.327 3.87479 11.9794 3.53708 11.5622 3.27884C11.145 3.0206 10.6683 2.84181 10.1319 2.74249C9.61545 2.6233 9.06917 2.5637 8.49308 2.5637ZM23.9979 5.81162H28.8251V8.04642H23.9979V16.2109C23.9979 16.6678 24.0178 17.0949 24.0575 17.4922C24.1171 17.8696 24.2164 18.2073 24.3555 18.5053C24.5144 18.7834 24.7329 19.0118 25.011 19.1906C25.309 19.3495 25.7063 19.4389 26.2029 19.4588C26.6598 19.4588 27.0571 19.3793 27.3948 19.2204C27.7524 19.0615 28.0503 18.8728 28.2887 18.6543L29.3912 20.5017C28.8747 20.9387 28.3384 21.2466 27.7822 21.4254C27.226 21.6042 26.6101 21.6936 25.9347 21.6936C25.0805 21.6936 24.3654 21.5744 23.7893 21.336C23.2132 21.0778 22.7266 20.7103 22.3293 20.2335C21.9916 19.7766 21.7631 19.2403 21.6439 18.6245C21.5247 18.0086 21.4651 17.3134 21.4651 16.5386V8.04642H18.9026V5.81162H21.4651V1.10364H23.9979V5.81162ZM42.1887 19.5184C41.851 19.9753 41.4636 20.3428 41.0266 20.6209C40.5895 20.899 40.1326 21.1175 39.6559 21.2764C39.199 21.4353 38.7322 21.5446 38.2554 21.6042C37.7985 21.6638 37.3416 21.6936 36.8847 21.6936C36.1497 21.6936 35.4545 21.6042 34.7989 21.4254C34.1434 21.2466 33.5474 20.9586 33.0111 20.5613C32.4946 20.164 32.0775 19.6674 31.7596 19.0714C31.4616 18.4755 31.3126 17.8001 31.3126 17.0452C31.3126 16.1513 31.4716 15.4063 31.7894 14.8104C32.1271 14.1946 32.5741 13.698 33.1303 13.3205C33.6865 12.9431 34.3222 12.6849 35.0373 12.5458C35.7723 12.3869 36.547 12.3074 37.3615 12.3074H41.9801C41.9801 10.9765 41.692 9.92365 41.116 9.14892C40.5399 8.35432 39.5665 7.93716 38.1958 7.89743C37.3615 7.89743 36.6265 8.03648 35.9908 8.31459C35.3551 8.5927 34.9181 9.04959 34.6797 9.68527H31.9682C32.1072 8.97013 32.3854 8.36425 32.8025 7.86763C33.2197 7.35115 33.7163 6.93398 34.2924 6.61615C34.8685 6.27844 35.4942 6.03013 36.1696 5.87121C36.845 5.71229 37.5204 5.63283 38.1958 5.63283C39.3679 5.63283 40.3512 5.83148 41.1458 6.22878C41.9602 6.60621 42.6158 7.11277 43.1124 7.74844C43.609 8.36425 43.9566 9.11912 44.1553 10.013C44.3539 10.907 44.4533 11.9101 44.4533 13.0226V21.5148H42.3376L42.1887 19.5184ZM39.2089 14.423C38.7322 14.423 38.176 14.433 37.5403 14.4528C36.9245 14.4528 36.3285 14.5124 35.7524 14.6316C35.1764 14.7508 34.7095 14.9991 34.352 15.3766C34.0143 15.754 33.8454 16.2506 33.8454 16.8664C33.8454 17.3233 33.9348 17.7107 34.1136 18.0285C34.2924 18.3463 34.5308 18.6145 34.8287 18.833C35.1466 19.0516 35.5041 19.2105 35.9014 19.3098C36.2987 19.4091 36.706 19.4588 37.1231 19.4588C38.613 19.4588 39.785 19.1012 40.6392 18.3861C41.5133 17.6511 41.9602 16.5883 41.9801 15.1978V14.423H39.2089ZM48.3772 21.5148V5.81162H50.8205L50.9397 8.255C51.5158 7.34121 52.2508 6.67574 53.1447 6.25858C54.0386 5.84142 55.0518 5.63283 56.1841 5.63283H56.9887V8.01662H56.0649C55.1312 8.01662 54.3366 8.17554 53.6811 8.49338C53.0255 8.79135 52.4892 9.20851 52.072 9.74486C51.6747 10.2613 51.3768 10.8772 51.1781 11.5923C50.9993 12.3074 50.9099 13.0623 50.9099 13.8569V21.5148H48.3772ZM64.3585 5.81162H68.56V8.04642H64.3585V16.1811C64.3585 17.2538 64.5671 18.0484 64.9843 18.5649C65.4015 19.0615 66.1762 19.3098 67.3085 19.3098H68.4706V21.5148H66.7721C64.9843 21.5148 63.7129 21.1076 62.9581 20.2931C62.2032 19.4786 61.8258 18.1974 61.8258 16.4493V8.04642H59.2632V5.81162H61.8258V1.13343H64.3585V5.81162ZM71.4235 27.1763V5.81162H73.8371L73.9563 8.16561C74.4926 7.35115 75.2177 6.73534 76.1315 6.31817C77.0651 5.88115 78.0683 5.6527 79.141 5.63283C80.3527 5.63283 81.3758 5.84142 82.2101 6.25858C83.0643 6.65588 83.7695 7.22202 84.3257 7.95702C84.9018 8.67216 85.3289 9.52635 85.607 10.5196C85.8851 11.493 86.0242 12.5458 86.0242 13.6781C86.0242 14.8303 85.8851 15.893 85.607 16.8664C85.3289 17.8398 84.9018 18.6841 84.3257 19.3992C83.7496 20.1143 83.0246 20.6805 82.1505 21.0976C81.2765 21.4949 80.2336 21.6936 79.0218 21.6936C77.8299 21.6936 76.8168 21.5049 75.9825 21.1274C75.1481 20.75 74.4727 20.2236 73.9563 19.5482V27.1763H71.4235ZM78.8132 19.4588C79.6674 19.4588 80.3825 19.3098 80.9586 19.0118C81.5546 18.694 82.0313 18.2768 82.3889 17.7603C82.7663 17.224 83.0345 16.6082 83.1934 15.9129C83.3722 15.2176 83.4715 14.4727 83.4914 13.6781C83.4914 12.8835 83.402 12.1386 83.2232 11.4433C83.0643 10.7282 82.7961 10.1124 82.4187 9.59587C82.0413 9.07939 81.5446 8.67216 80.9288 8.37419C80.3329 8.05635 79.6078 7.89743 78.7536 7.89743C77.7405 7.89743 76.8665 8.17554 76.1315 8.73175C75.3965 9.26811 74.8402 9.95344 74.4628 10.7878C74.2443 11.2447 74.0953 11.7214 74.0158 12.218C73.9364 12.6948 73.8967 13.1914 73.8967 13.7079C73.8967 14.3038 73.9364 14.8601 74.0158 15.3766C74.0953 15.8732 74.2443 16.3499 74.4628 16.8068C74.8402 17.5617 75.3865 18.1974 76.1017 18.7138C76.8367 19.2105 77.7405 19.4588 78.8132 19.4588ZM89.4072 21.5148V0.448095H91.9399V21.5148H89.4072ZM109.721 5.81162V21.5148C109.721 23.7993 109.125 25.5374 107.933 26.7293C106.741 27.9411 105.043 28.547 102.838 28.547C101.507 28.5271 100.305 28.3483 99.2323 28.0106C98.1795 27.6928 97.2061 27.1167 96.3122 26.2824L97.4147 24.2859C98.1894 24.9018 99.0138 25.3884 99.8878 25.746C100.782 26.1036 101.715 26.2824 102.689 26.2824C103.503 26.2824 104.199 26.1532 104.775 25.895C105.351 25.6566 105.818 25.309 106.175 24.8521C106.553 24.4151 106.821 23.8886 106.98 23.2728C107.158 22.657 107.248 21.9916 107.248 21.2764V19.3992C106.99 19.7965 106.662 20.1541 106.264 20.4719C105.887 20.7699 105.47 21.0182 105.013 21.2168C104.576 21.3956 104.099 21.5247 103.583 21.6042C103.086 21.7035 102.58 21.7532 102.063 21.7532C100.871 21.7333 99.8779 21.5446 99.0833 21.187C98.3086 20.8295 97.6829 20.3328 97.2061 19.6972C96.7492 19.0615 96.4214 18.3066 96.2228 17.4326C96.0241 16.5386 95.9248 15.5553 95.9248 14.4826V5.81162H98.4576V13.7675C98.4576 14.4826 98.4973 15.1878 98.5768 15.8831C98.6761 16.5784 98.8648 17.1942 99.1429 17.7305C99.421 18.2669 99.8283 18.7039 100.365 19.0416C100.901 19.3595 101.616 19.5184 102.51 19.5184C103.404 19.5184 104.159 19.3297 104.775 18.9522C105.41 18.5748 105.897 18.098 106.235 17.522C106.612 16.926 106.86 16.2705 106.98 15.5553C107.119 14.8402 107.188 14.1052 107.188 13.3503V5.81162H109.721Z" fill="#131313"/>
</svg>
