<svg width="123" height="39" viewBox="0 0 123 39" fill="none" xmlns="http://www.w3.org/2000/svg">
<g id="64d53b2d4293a5cd5da86df7_logo-white-startply-x-webflow-template.svg">
<path id="Vector" d="M1.45703 19.2913V8.35547H4.57657C7.14731 8.35547 9.57614 9.53414 11.1668 11.5536L17.2616 19.2913V30.1522H14.2846C11.7607 30.1522 9.37084 29.0159 7.77776 27.0583L1.45703 19.2913Z" fill="white"/>
<path id="Vector_2" d="M17.2617 19.2913V8.35547H20.3812C22.952 8.35547 25.3808 9.53414 26.9715 11.5536L32.2115 18.2062C32.7513 18.8914 33.5753 19.2913 34.4475 19.2913H35.6878V30.1522H30.0892C27.5653 30.1522 25.1755 29.0159 23.5824 27.0583L17.2617 19.2913Z" fill="white"/>
<path id="Vector_3" d="M51.0294 13.1094C50.6431 13.1094 50.25 13.1439 49.8499 13.2128C49.4636 13.2818 49.1119 13.406 48.7945 13.5853C48.4773 13.7508 48.2151 13.9854 48.0082 14.2888C47.8151 14.5785 47.7185 14.951 47.7185 15.4063C47.7185 15.9581 47.8634 16.4064 48.1531 16.7513C48.4428 17.0824 48.7946 17.3376 49.2084 17.517C49.5395 17.6549 49.8913 17.7721 50.2638 17.8687C50.6362 17.9653 51.0156 18.055 51.4019 18.1377C51.8019 18.2205 52.1882 18.3033 52.5607 18.386C52.9469 18.4688 53.3194 18.5723 53.6781 18.6964C54.5196 18.9861 55.1887 19.4 55.6853 19.938C56.1957 20.476 56.4512 21.1865 56.4512 22.0694C56.4512 22.8971 56.3058 23.58 56.0163 24.118C55.7405 24.656 55.3611 25.0974 54.8783 25.4423C54.4092 25.7872 53.8574 26.0424 53.2228 26.2079C52.602 26.3597 51.9398 26.4355 51.2363 26.4355C50.5327 26.4355 49.8568 26.3666 49.2084 26.2286C48.5738 26.0907 47.9944 25.8631 47.4702 25.5457C46.946 25.2285 46.4976 24.8146 46.1252 24.3042C45.7527 23.7938 45.4906 23.173 45.3389 22.4419H47.2219C47.3598 22.9109 47.5737 23.2971 47.8634 23.6006C48.1531 23.9042 48.4842 24.1456 48.8566 24.3249C49.2291 24.5042 49.6292 24.6284 50.0568 24.6974C50.4982 24.7663 50.9328 24.8008 51.3605 24.8008C51.7743 24.8008 52.1744 24.7595 52.5607 24.6767C52.9607 24.5801 53.3125 24.4353 53.616 24.2421C53.9195 24.049 54.1609 23.8007 54.3402 23.4972C54.5196 23.1937 54.6093 22.8281 54.6093 22.4005C54.6093 21.7521 54.4368 21.2692 54.0919 20.952C53.7471 20.6347 53.2849 20.3932 52.7055 20.2277C52.3192 20.1035 51.9123 20.0001 51.4846 19.9173C51.057 19.8346 50.6293 19.7449 50.2017 19.6483C49.774 19.5517 49.3533 19.4414 48.9394 19.3172C48.5255 19.1792 48.1462 19.0206 47.8013 18.8413C47.2495 18.5792 46.7873 18.1791 46.4149 17.6411C46.0424 17.0893 45.8562 16.3995 45.8562 15.5718C45.8562 14.7993 46.0079 14.1509 46.3114 13.6267C46.6149 13.1025 47.0081 12.6817 47.4909 12.3644C47.9737 12.0471 48.5118 11.8195 49.1049 11.6815C49.712 11.5436 50.3534 11.4746 51.0294 11.4746C51.5812 11.4884 52.0778 11.5367 52.5193 11.6195C52.9745 11.6885 53.4022 11.8195 53.8022 12.0127C54.423 12.2886 54.9403 12.7024 55.3542 13.2542C55.768 13.806 55.9956 14.5165 56.037 15.3856H54.2782C54.223 14.9579 54.0919 14.5992 53.885 14.3096C53.6918 14.0199 53.4504 13.7853 53.1608 13.606C52.8711 13.4266 52.5399 13.3025 52.1675 13.2335C51.8088 13.1507 51.4295 13.1094 51.0294 13.1094ZM61.797 15.3649H65.1491V16.9169H61.797V22.5867C61.797 22.904 61.8104 23.2006 61.8384 23.4765C61.8798 23.7386 61.9485 23.9731 62.0452 24.1801C62.1553 24.3732 62.3074 24.5318 62.5002 24.656C62.707 24.7663 62.9831 24.8284 63.328 24.8422C63.6455 24.8422 63.9211 24.787 64.1558 24.6767C64.404 24.5663 64.6108 24.4353 64.7768 24.2835L65.542 25.5665C65.1837 25.8699 64.8109 26.0838 64.4247 26.2079C64.0384 26.3321 63.6108 26.3942 63.1419 26.3942C62.5488 26.3942 62.0519 26.3114 61.6517 26.1458C61.252 25.9665 60.9139 25.7113 60.6378 25.3802C60.4035 25.0629 60.2448 24.6905 60.1621 24.2628C60.0794 23.8352 60.038 23.3524 60.038 22.8143V16.9169H58.2583V15.3649H60.038V12.0954H61.797V15.3649ZM74.4294 24.8836C74.1947 25.2009 73.9258 25.4561 73.6223 25.6492C73.3188 25.8424 73.0018 25.9941 72.6704 26.1045C72.3535 26.2148 72.0293 26.2907 71.6978 26.3321C71.3809 26.3735 71.0634 26.3942 70.7459 26.3942C70.2356 26.3942 69.7526 26.3321 69.2976 26.2079C68.8421 26.0838 68.4285 25.8837 68.0562 25.6078C67.6974 25.3319 67.4078 24.9871 67.187 24.5732C66.9802 24.1594 66.8768 23.6903 66.8768 23.1661C66.8768 22.5453 66.9869 22.028 67.2077 21.6141C67.4419 21.1865 67.7527 20.8416 68.1389 20.5795C68.5252 20.3174 68.9667 20.138 69.4631 20.0415C69.9734 19.9311 70.5117 19.8759 71.0774 19.8759H74.2846C74.2846 18.9516 74.0845 18.2205 73.6843 17.6825C73.2847 17.1307 72.6083 16.841 71.6564 16.8134C71.0774 16.8134 70.567 16.9099 70.1255 17.1031C69.6839 17.2962 69.3804 17.6135 69.2149 18.055H67.3318C67.4285 17.5583 67.6213 17.1376 67.9114 16.7927C68.201 16.434 68.5458 16.1443 68.9461 15.9236C69.3457 15.6891 69.7806 15.5166 70.2495 15.4063C70.7185 15.2959 71.1875 15.2407 71.6564 15.2407C72.4703 15.2407 73.1533 15.3787 73.705 15.6546C74.2707 15.9167 74.7262 16.2685 75.0711 16.7099C75.416 17.1376 75.6574 17.6618 75.7949 18.2826C75.933 18.9033 76.0023 19.6 76.0023 20.3726V26.27H74.5328L74.4294 24.8836ZM72.3602 21.3451C72.0293 21.3451 71.643 21.352 71.2014 21.3658C70.7738 21.3658 70.3597 21.4072 69.96 21.49C69.5598 21.5728 69.2356 21.7452 68.9874 22.0073C68.7527 22.2694 68.6353 22.6143 68.6353 23.0419C68.6353 23.3592 68.6973 23.6283 68.8214 23.849C68.9461 24.0697 69.1115 24.2559 69.3183 24.4077C69.5391 24.5594 69.7873 24.6698 70.0634 24.7387C70.339 24.8077 70.6218 24.8422 70.9119 24.8422C71.9465 24.8422 72.7604 24.5939 73.3534 24.0973C73.9604 23.5868 74.2707 22.8488 74.2846 21.8831V21.3451H72.3602ZM78.7272 26.27V15.3649H80.4236L80.5069 17.0617C80.9066 16.4271 81.4169 15.965 82.0379 15.6753C82.6589 15.3856 83.3621 15.2407 84.1485 15.2407H84.7075V16.8961H84.0658C83.4174 16.8961 82.8657 17.0065 82.4102 17.2273C81.9552 17.4342 81.5829 17.7239 81.2928 18.0963C81.0173 18.455 80.8099 18.8827 80.6724 19.3793C80.5483 19.8759 80.4863 20.4002 80.4863 20.952V26.27H78.7272ZM89.8253 15.3649H92.743V16.9169H89.8253V22.566C89.8253 23.3109 89.97 23.8627 90.2596 24.2214C90.5491 24.5663 91.0874 24.7387 91.8738 24.7387H92.6804V26.27H91.501C90.2596 26.27 89.377 25.9872 88.8527 25.4216C88.3284 24.856 88.0662 23.9662 88.0662 22.7523V16.9169H86.2865V15.3649H88.0662V12.1161H89.8253V15.3649ZM94.7318 30.2017V15.3649H96.4081L96.4908 16.9996C96.8631 16.434 97.3667 16.0063 98.0011 15.7167C98.6495 15.4132 99.346 15.2545 100.091 15.2407C100.933 15.2407 101.643 15.3856 102.222 15.6753C102.816 15.9512 103.306 16.3443 103.692 16.8548C104.092 17.3514 104.388 17.9446 104.582 18.6344C104.775 19.3103 104.871 20.0415 104.871 20.8278C104.871 21.6279 104.775 22.366 104.582 23.0419C104.388 23.7179 104.092 24.3042 103.692 24.8008C103.292 25.2975 102.788 25.6906 102.181 25.9803C101.574 26.2562 100.85 26.3942 100.008 26.3942C99.1805 26.3942 98.4773 26.2631 97.8977 26.001C97.3181 25.7389 96.8491 25.3733 96.4908 24.9043V30.2017H94.7318ZM99.8636 24.8422C100.457 24.8422 100.954 24.7387 101.353 24.5318C101.767 24.3111 102.098 24.0214 102.346 23.6627C102.609 23.2903 102.795 22.8626 102.905 22.3798C103.029 21.8969 103.099 21.3796 103.112 20.8278C103.112 20.276 103.05 19.7587 102.926 19.2758C102.816 18.7792 102.629 18.3515 102.367 17.9929C102.106 17.6342 101.761 17.3514 101.332 17.1445C100.919 16.9238 100.415 16.8134 99.8222 16.8134C99.1185 16.8134 98.5114 17.0065 98.0011 17.3928C97.4908 17.7653 97.1045 18.2412 96.8424 18.8206C96.6904 19.1379 96.587 19.469 96.5322 19.8138C96.4768 20.145 96.4495 20.4898 96.4495 20.8485C96.4495 21.2624 96.4768 21.6486 96.5322 22.0073C96.587 22.3522 96.6904 22.6833 96.8424 23.0005C97.1045 23.5248 97.4841 23.9662 97.9804 24.3249C98.4908 24.6698 99.1185 24.8422 99.8636 24.8422ZM107.22 26.27V11.6402H108.979V26.27H107.22ZM121.327 15.3649V26.27C121.327 27.8565 120.914 29.0635 120.086 29.8913C119.258 30.7328 118.079 31.1535 116.547 31.1535C115.623 31.1397 114.789 31.0156 114.044 30.781C113.313 30.5604 112.637 30.1603 112.016 29.5809L112.782 28.1945C113.319 28.6221 113.892 28.9601 114.499 29.2084C115.12 29.4567 115.768 29.5809 116.444 29.5809C117.01 29.5809 117.492 29.4912 117.893 29.3119C118.292 29.1463 118.617 28.9049 118.865 28.5876C119.127 28.2841 119.314 27.9186 119.424 27.4909C119.548 27.0633 119.61 26.6011 119.61 26.1045V24.8008C119.431 25.0767 119.203 25.3251 118.927 25.5457C118.665 25.7527 118.376 25.9251 118.058 26.0631C117.755 26.1873 117.424 26.2769 117.065 26.3321C116.72 26.4011 116.368 26.4355 116.01 26.4355C115.182 26.4217 114.492 26.2907 113.94 26.0424C113.402 25.7941 112.968 25.4492 112.637 25.0078C112.319 24.5663 112.092 24.0421 111.954 23.4351C111.816 22.8143 111.747 22.1314 111.747 21.3865V15.3649H113.505V20.8899C113.505 21.3865 113.533 21.8763 113.588 22.3591C113.657 22.8419 113.788 23.2696 113.982 23.642C114.174 24.0145 114.457 24.318 114.83 24.5525C115.202 24.7732 115.699 24.8836 116.32 24.8836C116.941 24.8836 117.465 24.7525 117.893 24.4904C118.334 24.2283 118.672 23.8972 118.907 23.4972C119.169 23.0833 119.341 22.6281 119.424 22.1314C119.52 21.6348 119.568 21.1244 119.568 20.6002V15.3649H121.327Z" fill="white"/>
</g>
</svg>
